
<svg width="101px" height="102px" viewBox="0 0 101 102" version="1.1" xmlns="http://www.w3.org/2000/svg" xmlns:xlink="http://www.w3.org/1999/xlink">
    <!-- Generator: Sketch 49.3 (51167) - http://www.bohemiancoding.com/sketch -->
    <desc>Created with Sketch.</desc>
    <defs></defs>
    <g id="Page-1" stroke="none" stroke-width="1" fill="none" fill-rule="evenodd">
        <g id="habicat" transform="translate(-2.000000, -3.000000)">
            <g id="Group-29" transform="translate(52.988437, 53.962748) scale(-1, 1) translate(-52.988437, -53.962748) translate(0.488437, 0.962748)">
                <rect id="Rectangle-3" fill-opacity="0.1" fill="#000000" fill-rule="nonzero" x="27" y="87" width="8.01005386" height="3"></rect>
                <path d="M56.8745117,8.078125 C48.597168,9.24169922 45.5877949,18.9077148 45.5877949,23.2456055" id="Path-3" stroke="#DEBFA5"></path>
                <path d="M65.6296776,106.267449 C63.4171103,106.267449 62.0250165,104.977899 61.5503695,102.687161 C59.0396059,92.6565484 60.0472908,85.966978 64.5734243,82.6184509 C71.3626246,77.5956602 73.5270221,84.5986213 69.5964643,88.8213886 C66.9760924,91.6365668 66.9888391,96.121226 69.6347045,102.275366 C69.6347045,104.480782 67.8422449,106.267449 65.6296776,106.267449 Z" id="Shape-Copy" fill="#DDC7AE" fill-rule="nonzero" transform="translate(65.878278, 93.570958) rotate(-51.000000) translate(-65.878278, -93.570958) "></path>
                <path d="M38.0057805,106.267449 C35.7932132,106.267449 34.4011194,104.977899 33.9264724,102.687161 C31.4157088,92.6565484 32.4233937,85.966978 36.9495273,82.6184509 C43.7387275,77.5956602 45.903125,84.5986213 41.9725672,88.8213886 C39.3521953,91.6365668 39.3649421,96.121226 42.0108074,102.275366 C42.0108074,104.480782 40.2183478,106.267449 38.0057805,106.267449 Z" id="Shape-Copy-2" fill="#DDC7AE" fill-rule="nonzero" transform="translate(38.254381, 93.570958) rotate(-51.000000) translate(-38.254381, -93.570958) "></path>
                <path d="M9.90711015,61.5613031 C7.69454282,61.5613031 5.90208322,59.7746365 5.90208322,57.5692198 L5.90208322,42.8152615 L13.912137,42.8152615 L13.912137,57.5692198 C13.912137,59.7746365 12.1196774,61.5613031 9.90711015,61.5613031 Z" id="Shape-Copy-3" fill="#DDC7AE" fill-rule="nonzero" transform="translate(9.907110, 52.188282) rotate(140.000000) translate(-9.907110, -52.188282) "></path>
                <rect id="Rectangle-6" fill="#DDC7AE" fill-rule="nonzero" x="12" y="22" width="78.5451895" height="65.3091967" rx="6"></rect>
                <path d="M18,69 L90.5451895,69 L90.5451895,81.7460417 C90.5451895,85.0597502 87.858898,87.7460417 84.5451895,87.7460417 L18,87.7460417 C14.6862915,87.7460417 12,85.0597502 12,81.7460417 L12,75 C12,71.6862915 14.6862915,69 18,69 Z" id="Rectangle-6" fill="#A2BD7C" fill-rule="nonzero"></path>
                <rect id="Rectangle-6-Copy" fill="#FFE9D1" fill-rule="nonzero" x="12" y="25" width="63.8520978" height="61.8445602" rx="4"></rect>
                <path d="M43.7701059,43.87081 C50.836804,43.87081 56.5654947,49.5995007 56.5654947,56.6661989 L56.5654947,69.7279529 L30.974717,69.7279529 L30.974717,56.6661989 C30.974717,49.5995007 36.7034077,43.87081 43.7701059,43.87081 Z" id="Rectangle-Copy-9" fill="#FFFFFF" fill-rule="nonzero"></path>
                <path d="M45.6266372,43.4140379 L45.2024423,43.9288138 C44.5661498,44.7254909 43.42318,44.8235435 42.6572725,44.1616887 C42.5747901,44.0881492 42.5040909,44.0146098 42.4333918,43.9288138 L42.0091968,43.4140379 C41.8677985,43.2424459 41.8913649,42.9850579 42.0563296,42.8379791 C42.1270288,42.7766962 42.2212943,42.7399265 42.3155598,42.7399265 L45.3202742,42.7399265 C45.5441549,42.7399265 45.7209028,42.923775 45.7209028,43.1566499 C45.7209028,43.2424459 45.6855532,43.3404984 45.6266372,43.4140379 Z" id="Shape-Copy-5" fill="#837365" fill-rule="nonzero"></path>
                <ellipse id="Oval-Copy" fill="#837365" fill-rule="nonzero" cx="28.7224417" cy="40.716875" rx="1.72244165" ry="1.716875"></ellipse>
                <ellipse id="Oval-Copy-2" fill="#837365" fill-rule="nonzero" cx="58.7224417" cy="40.716875" rx="1.72244165" ry="1.716875"></ellipse>
                <path d="M47.3909668,49.0143943 L46.431632,49.7890226 C44.9926297,50.9878522 42.4077553,51.1354004 40.6756229,50.1394497 C40.4890856,50.0287885 40.3291964,49.9181273 40.1693073,49.7890226 L39.2099724,49.0143943 C38.8901942,48.7561848 38.9434905,48.3688706 39.3165652,48.1475483 C39.4764543,48.0553306 39.6896399,48 39.9028254,48 L46.6981139,48 C47.2044295,48 47.6041523,48.276653 47.6041523,48.6270801 C47.6041523,48.7561848 47.5242078,48.9037331 47.3909668,49.0143943 Z" id="Shape-Copy-4" fill="#837365" fill-rule="nonzero"></path>
                <path d="M14,49 L17,49" id="Line-6" stroke="#827365" stroke-linecap="round" stroke-linejoin="round"></path>
                <path d="M70.1893763,49.3662659 L73.1893763,49.3662659" id="Line-6-Copy-3" stroke="#827365" stroke-linecap="round" stroke-linejoin="round"></path>
                <path d="M14,45 L17,45" id="Line-6-Copy" stroke="#827365" stroke-linecap="round" stroke-linejoin="round"></path>
                <path d="M70.1893763,44.8662659 L73.1893763,44.8662659" id="Line-6-Copy-4" stroke="#827365" stroke-linecap="round" stroke-linejoin="round"></path>
                <path d="M14,54 L17,54" id="Line-6-Copy-2" stroke="#827365" stroke-linecap="round" stroke-linejoin="round"></path>
                <path d="M70.1893763,53.8662659 L73.1893763,53.8662659" id="Line-6-Copy-5" stroke="#827365" stroke-linecap="round" stroke-linejoin="round"></path>
                <g id="Group-2" transform="translate(51.000000, 14.000000)" fill-rule="nonzero">
                    <path d="M10.3242716,1.86558247 L14.7437844,9.59972995 L0.695299856,9.59972995 L5.1148127,1.86558247 C5.93684261,0.42703013 7.7694066,-0.0727600504 9.20795894,0.749269858 C9.67305277,1.01503776 10.0585037,1.40048864 10.3242716,1.86558247 Z" id="Triangle-Copy-4" fill="#DDC7AE"></path>
                    <path d="M8.58778527,6.45964674 L10.3821185,9.59972995 L5.05696573,9.59972995 L6.85129899,6.45964674 C7.12530896,5.9801293 7.73616362,5.81353257 8.21568107,6.08754254 C8.37071234,6.17613184 8.49919597,6.30461547 8.58778527,6.45964674 Z" id="Triangle-Copy-5" fill="#827365"></path>
                </g>
                <g id="Group-2-Copy" transform="translate(22.000000, 14.000000)" fill-rule="nonzero">
                    <path d="M10.3242716,1.86558247 L14.7437844,9.59972995 L0.695299856,9.59972995 L5.1148127,1.86558247 C5.93684261,0.42703013 7.7694066,-0.0727600504 9.20795894,0.749269858 C9.67305277,1.01503776 10.0585037,1.40048864 10.3242716,1.86558247 Z" id="Triangle-Copy-4" fill="#DDC7AE"></path>
                    <path d="M8.58778527,6.45964674 L10.3821185,9.59972995 L5.05696573,9.59972995 L6.85129899,6.45964674 C7.12530896,5.9801293 7.73616362,5.81353257 8.21568107,6.08754254 C8.37071234,6.17613184 8.49919597,6.30461547 8.58778527,6.45964674 Z" id="Triangle-Copy-5" fill="#827365"></path>
                </g>
                <polygon id="Rectangle-3-Copy" fill-opacity="0.1" fill="#000000" fill-rule="nonzero" points="56.4398564 87 64.4499102 87 65.2600098 90 56.4398564 90"></polygon>
                <polygon id="Rectangle-3-Copy-3" fill-opacity="0.1" fill="#000000" fill-rule="nonzero" points="28.8159593 87 36.8260132 87 37.6361127 90 28.8159593 90"></polygon>
                <path d="M94.4868892,59.9014835 C92.2743219,59.9014835 90.4818623,58.1148168 90.4818623,55.9094001 L90.4818623,41.1554418 L98.4919162,41.1554418 L98.4919162,55.9094001 C98.4919162,58.1148168 96.6994566,59.9014835 94.4868892,59.9014835 Z" id="Shape-Copy-6" fill="#DDC7AE" fill-rule="nonzero" transform="translate(94.486889, 50.528463) rotate(-125.000000) translate(-94.486889, -50.528463) "></path>
                <g id="Group-28" transform="translate(48.500000, 0.000000)" fill-rule="nonzero">
                    <g id="Group-27" fill="#FF9012">
                        <g id="Group-25" transform="translate(3.250000, 2.250000)">
                            <ellipse id="Oval-2" transform="translate(8.250000, 5.250000) rotate(90.000000) translate(-8.250000, -5.250000) " cx="8.25" cy="5.25" rx="1.5" ry="2.25"></ellipse>
                            <ellipse id="Oval-2" cx="5.25" cy="2.25" rx="1.5" ry="2.25"></ellipse>
                            <ellipse id="Oval-2" transform="translate(2.250000, 5.250000) rotate(-90.000000) translate(-2.250000, -5.250000) " cx="2.25" cy="5.25" rx="1.5" ry="2.25"></ellipse>
                            <ellipse id="Oval-2" transform="translate(5.250000, 8.250000) rotate(-180.000000) translate(-5.250000, -8.250000) " cx="5.25" cy="8.25" rx="1.5" ry="2.25"></ellipse>
                        </g>
                        <g id="Group-25" transform="translate(8.500000, 7.853553) rotate(45.000000) translate(-8.500000, -7.853553) translate(3.000000, 2.353553)">
                            <ellipse id="Oval-2" transform="translate(8.250000, 5.250000) rotate(90.000000) translate(-8.250000, -5.250000) " cx="8.25" cy="5.25" rx="1.5" ry="2.25"></ellipse>
                            <ellipse id="Oval-2" cx="5.25" cy="2.25" rx="1.5" ry="2.25"></ellipse>
                            <ellipse id="Oval-2" transform="translate(2.250000, 5.250000) rotate(-90.000000) translate(-2.250000, -5.250000) " cx="2.25" cy="5.25" rx="1.5" ry="2.25"></ellipse>
                            <ellipse id="Oval-2" transform="translate(5.250000, 8.250000) rotate(-180.000000) translate(-5.250000, -8.250000) " cx="5.25" cy="8.25" rx="1.5" ry="2.25"></ellipse>
                        </g>
                    </g>
                    <path d="M8.5,9 C7.67263564,9 7,8.32716744 7,7.49991958 C7,6.67267171 7.67263564,6 8.5,6 C9.32720352,6 10,6.67267171 10,7.49991958 C10,8.32716744 9.32720352,9 8.5,9" id="Fill-4" fill="#FFE48F"></path>
                </g>
                <path d="M12,69 L75.8520978,69 L75.8520978,83.7460417 C75.8520978,85.9551807 74.0612368,87.7460417 71.8520978,87.7460417 L16,87.7460417 C13.790861,87.7460417 12,85.9551807 12,83.7460417 L12,69 Z" id="Rectangle-6-Copy" fill="#B9DA8D" fill-rule="nonzero"></path>
            </g>
        </g>
    </g>
</svg>
