<?xml version="1.0" encoding="UTF-8" standalone="no"?>
<!DOCTYPE svg PUBLIC "-//W3C//DTD SVG 1.1//EN"
 "http://www.w3.org/Graphics/SVG/1.1/DTD/svg11.dtd">
<!-- Generated by graphviz version 2.40.1 (20161225.0304)
 -->
<!-- Title: COMPONENTS Pages: 1 -->
<svg width="471pt" height="135pt"
 viewBox="0.00 0.00 471.10 135.00" xmlns="http://www.w3.org/2000/svg" xmlns:xlink="http://www.w3.org/1999/xlink">
<g id="graph0" class="graph" transform="scale(1 1) rotate(0) translate(4 131)">
<title>COMPONENTS</title>
<polygon fill="#ffffff" stroke="transparent" points="-4,4 -4,-131 467.0957,-131 467.0957,4 -4,4"/>
<g id="clust1" class="cluster">
<title>cluster_jobsrv</title>
<polygon fill="#d3d3d3" stroke="#d3d3d3" points="318,-8 318,-83 400,-83 400,-8 318,-8"/>
<text text-anchor="middle" x="359" y="-67.8" font-family="Times,serif" font-size="14.00" fill="#000000">JobSrv</text>
</g>
<!-- API -->
<g id="node1" class="node">
<title>API</title>
<ellipse fill="none" stroke="#000000" cx="27" cy="-109" rx="27" ry="18"/>
<text text-anchor="middle" x="27" y="-105.3" font-family="Courier,monospace" font-size="14.00" fill="#000000">API</text>
</g>
<!-- Actix -->
<g id="node4" class="node">
<title>Actix</title>
<polygon fill="none" stroke="#000000" points="130,-127 72,-127 72,-91 130,-91 130,-127"/>
<text text-anchor="middle" x="101" y="-105.3" font-family="Courier,monospace" font-size="14.00" fill="#000000">Actix</text>
</g>
<!-- API&#45;&gt;Actix -->
<g id="edge5" class="edge">
<title>API&#45;&gt;Actix</title>
<path fill="none" stroke="#000000" stroke-dasharray="5,2" d="M48.3906,-97.9027C52.7833,-96.5504 57.176,-95.7689 61.5687,-95.5583"/>
<polygon fill="#000000" stroke="#000000" points="61.6466,-99.0673 71.8182,-96.1028 62.018,-92.0771 61.6466,-99.0673"/>
</g>
<!-- Postgres -->
<g id="node2" class="node">
<title>Postgres</title>
<ellipse fill="none" stroke="#000000" cx="194" cy="-34" rx="53.8905" ry="18"/>
<text text-anchor="middle" x="194" y="-30.3" font-family="Courier,monospace" font-size="14.00" fill="#000000">Postgres</text>
</g>
<!-- Workers -->
<g id="node3" class="node">
<title>Workers</title>
<ellipse fill="none" stroke="#000000" cx="415" cy="-109" rx="48.1917" ry="18"/>
<text text-anchor="middle" x="415" y="-105.3" font-family="Courier,monospace" font-size="14.00" fill="#000000">Workers</text>
</g>
<!-- WorkerMgr -->
<g id="node6" class="node">
<title>WorkerMgr</title>
<polygon fill="none" stroke="#000000" points="348.5,-127 257.5,-127 257.5,-91 348.5,-91 348.5,-127"/>
<text text-anchor="middle" x="303" y="-105.3" font-family="Courier,monospace" font-size="14.00" fill="#000000">WorkerMgr</text>
</g>
<!-- Workers&#45;&gt;WorkerMgr -->
<g id="edge8" class="edge">
<title>Workers&#45;&gt;WorkerMgr</title>
<path fill="none" stroke="#000000" stroke-dasharray="1,5" d="M378.614,-120.8439C372.1223,-121.9401 365.6305,-122.4922 359.1388,-122.4999"/>
<polygon fill="#000000" stroke="#000000" points="359.0778,-118.9942 348.9375,-122.0641 358.779,-125.9878 359.0778,-118.9942"/>
</g>
<!-- LogMgr -->
<g id="node7" class="node">
<title>LogMgr</title>
<polygon fill="none" stroke="#000000" points="392,-52 326,-52 326,-16 392,-16 392,-52"/>
<text text-anchor="middle" x="359" y="-30.3" font-family="Courier,monospace" font-size="14.00" fill="#000000">LogMgr</text>
</g>
<!-- Workers&#45;&gt;LogMgr -->
<g id="edge9" class="edge">
<title>Workers&#45;&gt;LogMgr</title>
<path fill="none" stroke="#000000" stroke-dasharray="1,5" d="M402.0117,-91.605C395.0261,-82.2492 386.2706,-70.5231 378.4855,-60.0967"/>
<polygon fill="#000000" stroke="#000000" points="381.2899,-58.0025 372.5025,-52.0837 375.6809,-62.1905 381.2899,-58.0025"/>
</g>
<!-- Actix&#45;&gt;API -->
<g id="edge6" class="edge">
<title>Actix&#45;&gt;API</title>
<path fill="none" stroke="#c0c0c0" stroke-dasharray="5,2" d="M71.8182,-121.8972C67.3035,-122.5934 62.7888,-122.6865 58.2741,-122.1767"/>
<polygon fill="#c0c0c0" stroke="#c0c0c0" points="58.897,-118.7312 48.3906,-120.0973 57.4558,-125.5812 58.897,-118.7312"/>
</g>
<!-- Actix&#45;&gt;Postgres -->
<g id="edge10" class="edge">
<title>Actix&#45;&gt;Postgres</title>
<path fill="none" stroke="#000000" d="M123.5127,-90.8446C136.0667,-80.7204 151.8328,-68.0058 165.2691,-57.1701"/>
<polygon fill="#000000" stroke="#000000" points="167.6975,-59.7081 173.2845,-50.7061 163.3032,-54.2592 167.6975,-59.7081"/>
</g>
<!-- Scheduler -->
<g id="node5" class="node">
<title>Scheduler</title>
<polygon fill="none" stroke="#000000" points="239.5,-127 148.5,-127 148.5,-91 239.5,-91 239.5,-127"/>
<text text-anchor="middle" x="194" y="-105.3" font-family="Courier,monospace" font-size="14.00" fill="#000000">Scheduler</text>
</g>
<!-- Actix&#45;&gt;Scheduler -->
<g id="edge1" class="edge">
<title>Actix&#45;&gt;Scheduler</title>
<path fill="none" stroke="#000000" d="M130.0625,-109C132.6849,-109 135.3074,-109 137.9298,-109"/>
<polygon fill="#000000" stroke="#000000" points="138.045,-112.5001 148.0449,-109 138.0449,-105.5001 138.045,-112.5001"/>
</g>
<!-- Scheduler&#45;&gt;Postgres -->
<g id="edge11" class="edge">
<title>Scheduler&#45;&gt;Postgres</title>
<path fill="none" stroke="#000000" d="M194,-90.8446C194,-82.3401 194,-72.0076 194,-62.4964"/>
<polygon fill="#000000" stroke="#000000" points="197.5001,-62.2481 194,-52.2482 190.5001,-62.2482 197.5001,-62.2481"/>
</g>
<!-- Scheduler&#45;&gt;WorkerMgr -->
<g id="edge2" class="edge">
<title>Scheduler&#45;&gt;WorkerMgr</title>
<path fill="none" stroke="#000000" d="M239.5586,-95.8634C242.1607,-95.6519 244.7628,-95.5327 247.3649,-95.5059"/>
<polygon fill="#000000" stroke="#000000" points="247.2842,-99.0051 257.4015,-95.8601 247.5312,-92.0095 247.2842,-99.0051"/>
</g>
<!-- WorkerMgr&#45;&gt;Postgres -->
<g id="edge12" class="edge">
<title>WorkerMgr&#45;&gt;Postgres</title>
<path fill="none" stroke="#000000" d="M276.6141,-90.8446C261.4101,-80.3831 242.1862,-67.1556 226.109,-56.0934"/>
<polygon fill="#000000" stroke="#000000" points="227.7687,-52.9869 217.5465,-50.2017 223.8008,-58.7536 227.7687,-52.9869"/>
</g>
<!-- WorkerMgr&#45;&gt;Workers -->
<g id="edge7" class="edge">
<title>WorkerMgr&#45;&gt;Workers</title>
<path fill="none" stroke="#000000" stroke-dasharray="1,5" d="M348.9375,-95.9359C355.4292,-95.3735 361.921,-95.3553 368.4127,-95.8814"/>
<polygon fill="#000000" stroke="#000000" points="368.2572,-99.3891 378.614,-97.1561 369.1252,-92.4431 368.2572,-99.3891"/>
</g>
<!-- WorkerMgr&#45;&gt;Scheduler -->
<g id="edge3" class="edge">
<title>WorkerMgr&#45;&gt;Scheduler</title>
<path fill="none" stroke="#000000" d="M257.4015,-122.1399C254.7994,-122.3504 252.1973,-122.4686 249.5952,-122.4945"/>
<polygon fill="#000000" stroke="#000000" points="249.677,-118.9953 239.5586,-122.1366 249.4275,-125.9909 249.677,-118.9953"/>
</g>
<!-- LogMgr&#45;&gt;WorkerMgr -->
<g id="edge4" class="edge">
<title>LogMgr&#45;&gt;WorkerMgr</title>
<path fill="none" stroke="#000000" d="M345.3747,-52.2482C338.5361,-61.4071 330.1277,-72.6683 322.6087,-82.7383"/>
<polygon fill="#000000" stroke="#000000" points="319.7345,-80.7377 316.556,-90.8446 325.3435,-84.9258 319.7345,-80.7377"/>
</g>
</g>
</svg>
