<?xml version="1.0" encoding="UTF-8" standalone="no"?>
<!DOCTYPE svg PUBLIC "-//W3C//DTD SVG 1.1//EN"
 "http://www.w3.org/Graphics/SVG/1.1/DTD/svg11.dtd">
<!-- Generated by graphviz version 2.40.1 (20161225.0304)
 -->
<!-- Title: STATES Pages: 1 -->
<svg width="1096pt" height="344pt"
 viewBox="0.00 0.00 1096.14 344.00" xmlns="http://www.w3.org/2000/svg" xmlns:xlink="http://www.w3.org/1999/xlink">
<g id="graph0" class="graph" transform="scale(1 1) rotate(0) translate(4 340)">
<title>STATES</title>
<polygon fill="#ffffff" stroke="transparent" points="-4,4 -4,-340 1092.1448,-340 1092.1448,4 -4,4"/>
<!-- Triggered -->
<g id="node1" class="node">
<title>Triggered</title>
<ellipse fill="none" stroke="#000000" cx="186.1448" cy="-318" rx="59.2899" ry="18"/>
<text text-anchor="middle" x="186.1448" y="-314.3" font-family="Courier,monospace" font-size="14.00" fill="#000000">Triggered</text>
</g>
<!-- Created -->
<g id="node2" class="node">
<title>Created</title>
<ellipse fill="none" stroke="#000000" cx="186.1448" cy="-268" rx="48.1917" ry="18"/>
<text text-anchor="middle" x="186.1448" y="-264.3" font-family="Courier,monospace" font-size="14.00" fill="#000000">Created</text>
</g>
<!-- Triggered&#45;&gt;Created -->
<g id="edge1" class="edge">
<title>Triggered&#45;&gt;Created</title>
<path fill="none" stroke="#000000" d="M186.1448,-299.9489C186.1448,-298.83 186.1448,-297.6909 186.1448,-296.5416"/>
<polygon fill="#000000" stroke="#000000" points="189.6448,-296.1926 186.1448,-286.1926 182.6448,-296.1926 189.6448,-296.1926"/>
</g>
<!-- Failed -->
<g id="node7" class="node">
<title>Failed</title>
<ellipse fill="none" stroke="#000000" cx="490.1448" cy="-18" rx="42.7926" ry="18"/>
<text text-anchor="middle" x="490.1448" y="-14.3" font-family="Courier,monospace" font-size="14.00" fill="#000000">Failed</text>
</g>
<!-- Triggered&#45;&gt;Failed -->
<g id="edge2" class="edge">
<title>Triggered&#45;&gt;Failed</title>
<path fill="none" stroke="#000000" d="M243.3879,-313.1276C340.7469,-303.2462 528.1448,-276.6134 528.1448,-218 528.1448,-218 528.1448,-218 528.1448,-118 528.1448,-91.8246 516.6273,-64.1612 506.2739,-44.5816"/>
<polygon fill="#000000" stroke="#000000" points="509.243,-42.7182 501.3405,-35.6612 503.1174,-46.106 509.243,-42.7182"/>
</g>
<!-- Cancelled -->
<g id="node9" class="node">
<title>Cancelled</title>
<ellipse fill="none" stroke="#000000" cx="59.1448" cy="-18" rx="59.2899" ry="18"/>
<text text-anchor="middle" x="59.1448" y="-14.3" font-family="Courier,monospace" font-size="14.00" fill="#000000">Cancelled</text>
</g>
<!-- Triggered&#45;&gt;Cancelled -->
<g id="edge3" class="edge">
<title>Triggered&#45;&gt;Cancelled</title>
<path fill="none" stroke="#000000" d="M130.9387,-311.4599C76.7403,-301.599 2.1448,-277.2625 2.1448,-218 2.1448,-218 2.1448,-218 2.1448,-118 2.1448,-89.6736 19.6207,-62.0569 35.2194,-43.0487"/>
<polygon fill="#000000" stroke="#000000" points="37.8806,-45.322 41.7332,-35.4524 32.5667,-40.7653 37.8806,-45.322"/>
</g>
<!-- Queued -->
<g id="node3" class="node">
<title>Queued</title>
<ellipse fill="none" stroke="#000000" cx="186.1448" cy="-218" rx="42.7926" ry="18"/>
<text text-anchor="middle" x="186.1448" y="-214.3" font-family="Courier,monospace" font-size="14.00" fill="#000000">Queued</text>
</g>
<!-- Created&#45;&gt;Queued -->
<g id="edge4" class="edge">
<title>Created&#45;&gt;Queued</title>
<path fill="none" stroke="#000000" d="M186.1448,-249.9489C186.1448,-248.83 186.1448,-247.6909 186.1448,-246.5416"/>
<polygon fill="#000000" stroke="#000000" points="189.6448,-246.1926 186.1448,-236.1926 182.6448,-246.1926 189.6448,-246.1926"/>
</g>
<!-- Created&#45;&gt;Failed -->
<g id="edge5" class="edge">
<title>Created&#45;&gt;Failed</title>
<path fill="none" stroke="#000000" d="M232.3158,-262.5533C317.3589,-251.2262 490.1448,-221.6153 490.1448,-168 490.1448,-168 490.1448,-168 490.1448,-118 490.1448,-93.7182 490.1448,-66.1198 490.1448,-46.0767"/>
<polygon fill="#000000" stroke="#000000" points="493.6449,-46.0652 490.1448,-36.0652 486.6449,-46.0653 493.6449,-46.0652"/>
</g>
<!-- Created&#45;&gt;Cancelled -->
<g id="edge6" class="edge">
<title>Created&#45;&gt;Cancelled</title>
<path fill="none" stroke="#000000" d="M144.6975,-258.5217C101.5335,-245.9064 40.1448,-218.9998 40.1448,-168 40.1448,-168 40.1448,-168 40.1448,-118 40.1448,-93.3204 45.7993,-65.8073 50.9388,-45.897"/>
<polygon fill="#000000" stroke="#000000" points="54.3203,-46.8001 53.5469,-36.2335 47.5621,-44.976 54.3203,-46.8001"/>
</g>
<!-- Dispatching -->
<g id="node4" class="node">
<title>Dispatching</title>
<ellipse fill="none" stroke="#000000" cx="230.1448" cy="-168" rx="69.5877" ry="18"/>
<text text-anchor="middle" x="230.1448" y="-164.3" font-family="Courier,monospace" font-size="14.00" fill="#000000">Dispatching</text>
</g>
<!-- Queued&#45;&gt;Dispatching -->
<g id="edge7" class="edge">
<title>Queued&#45;&gt;Dispatching</title>
<path fill="none" stroke="#000000" d="M201.0411,-201.0723C203.2351,-198.5792 205.5346,-195.9661 207.8386,-193.3479"/>
<polygon fill="#000000" stroke="#000000" points="210.6841,-195.4123 214.6629,-185.593 205.4291,-190.7879 210.6841,-195.4123"/>
</g>
<!-- Queued&#45;&gt;Cancelled -->
<g id="edge8" class="edge">
<title>Queued&#45;&gt;Cancelled</title>
<path fill="none" stroke="#000000" d="M166.125,-201.7755C160.9017,-197.0081 155.5171,-191.5693 151.1448,-186 115.7277,-140.8876 86.2739,-80.3052 70.8242,-45.5751"/>
<polygon fill="#000000" stroke="#000000" points="73.8854,-43.8402 66.6661,-36.0856 67.4739,-46.6496 73.8854,-43.8402"/>
</g>
<!-- Complete -->
<g id="node5" class="node">
<title>Complete</title>
<ellipse fill="none" stroke="#000000" cx="262.1448" cy="-18" rx="53.8905" ry="18"/>
<text text-anchor="middle" x="262.1448" y="-14.3" font-family="Courier,monospace" font-size="14.00" fill="#000000">Complete</text>
</g>
<!-- Dispatching&#45;&gt;Complete -->
<g id="edge9" class="edge">
<title>Dispatching&#45;&gt;Complete</title>
<path fill="none" stroke="#000000" d="M234.0047,-149.9065C239.5066,-124.1166 249.6544,-76.5484 256.1425,-46.1357"/>
<polygon fill="#000000" stroke="#000000" points="259.6076,-46.6679 258.2711,-36.1577 252.7617,-45.2073 259.6076,-46.6679"/>
</g>
<!-- FailureCleanup -->
<g id="node6" class="node">
<title>FailureCleanup</title>
<ellipse fill="none" stroke="#000000" cx="376.1448" cy="-68" rx="85.5853" ry="18"/>
<text text-anchor="middle" x="376.1448" y="-64.3" font-family="Courier,monospace" font-size="14.00" fill="#000000">FailureCleanup</text>
</g>
<!-- Dispatching&#45;&gt;FailureCleanup -->
<g id="edge10" class="edge">
<title>Dispatching&#45;&gt;FailureCleanup</title>
<path fill="none" stroke="#000000" d="M254.9117,-151.0364C278.9906,-134.5439 315.7422,-109.3716 342.4691,-91.0655"/>
<polygon fill="#000000" stroke="#000000" points="344.4931,-93.9215 350.7656,-85.383 340.5375,-88.1463 344.4931,-93.9215"/>
</g>
<!-- Cancelling -->
<g id="node8" class="node">
<title>Cancelling</title>
<ellipse fill="none" stroke="#000000" cx="170.1448" cy="-68" rx="64.189" ry="18"/>
<text text-anchor="middle" x="170.1448" y="-64.3" font-family="Courier,monospace" font-size="14.00" fill="#000000">Cancelling</text>
</g>
<!-- Dispatching&#45;&gt;Cancelling -->
<g id="edge11" class="edge">
<title>Dispatching&#45;&gt;Cancelling</title>
<path fill="none" stroke="#000000" d="M219.418,-150.122C210.1753,-134.7176 196.7001,-112.259 186.1768,-94.7202"/>
<polygon fill="#000000" stroke="#000000" points="189.1272,-92.8346 180.981,-86.0604 183.1248,-96.4361 189.1272,-92.8346"/>
</g>
<!-- FailureCleanup&#45;&gt;Failed -->
<g id="edge12" class="edge">
<title>FailureCleanup&#45;&gt;Failed</title>
<path fill="none" stroke="#000000" d="M413.4726,-51.6281C425.4624,-46.3694 438.7759,-40.5302 450.899,-35.2131"/>
<polygon fill="#000000" stroke="#000000" points="452.5662,-38.3037 460.3182,-31.0818 449.7545,-31.8932 452.5662,-38.3037"/>
</g>
<!-- Cancelling&#45;&gt;Cancelled -->
<g id="edge13" class="edge">
<title>Cancelling&#45;&gt;Cancelled</title>
<path fill="none" stroke="#000000" d="M135.9354,-52.5904C125.0864,-47.7035 112.9582,-42.2403 101.6022,-37.125"/>
<polygon fill="#000000" stroke="#000000" points="102.845,-33.8461 92.2898,-32.9302 99.97,-40.2285 102.845,-33.8461"/>
</g>
<!-- Pending -->
<g id="node10" class="node">
<title>Pending</title>
<polygon fill="none" stroke="#000000" points="1070.1448,-286 996.1448,-286 996.1448,-250 1070.1448,-250 1070.1448,-286"/>
<text text-anchor="middle" x="1033.1448" y="-264.3" font-family="Courier,monospace" font-size="14.00" fill="#000000">Pending</text>
</g>
<!-- WaitingOnDependency -->
<g id="node11" class="node">
<title>WaitingOnDependency</title>
<polygon fill="none" stroke="#000000" points="991.6448,-236 818.6448,-236 818.6448,-200 991.6448,-200 991.6448,-236"/>
<text text-anchor="middle" x="905.1448" y="-214.3" font-family="Courier,monospace" font-size="14.00" fill="#000000">WaitingOnDependency</text>
</g>
<!-- Pending&#45;&gt;WaitingOnDependency -->
<g id="edge14" class="edge">
<title>Pending&#45;&gt;WaitingOnDependency</title>
<path fill="none" stroke="#000000" d="M996.1218,-253.5379C985.169,-249.2595 972.9258,-244.477 961.0594,-239.8417"/>
<polygon fill="#000000" stroke="#000000" points="962.2436,-236.5467 951.6555,-236.1683 959.6966,-243.0669 962.2436,-236.5467"/>
</g>
<!-- CancelComplete -->
<g id="node18" class="node">
<title>CancelComplete</title>
<polygon fill="none" stroke="#000000" points="1088.1448,-36 956.1448,-36 956.1448,0 1088.1448,0 1088.1448,-36"/>
<text text-anchor="middle" x="1022.1448" y="-14.3" font-family="Courier,monospace" font-size="14.00" fill="#000000">CancelComplete</text>
</g>
<!-- Pending&#45;&gt;CancelComplete -->
<g id="edge15" class="edge">
<title>Pending&#45;&gt;CancelComplete</title>
<path fill="none" stroke="#000000" d="M1042.7458,-249.7603C1052.1716,-230.1288 1065.1448,-197.7122 1065.1448,-168 1065.1448,-168 1065.1448,-168 1065.1448,-118 1065.1448,-91.5707 1052.3119,-64.174 1040.6672,-44.7543"/>
<polygon fill="#000000" stroke="#000000" points="1043.5579,-42.7759 1035.2798,-36.1635 1037.6276,-46.495 1043.5579,-42.7759"/>
</g>
<!-- WaitingOnWorker -->
<g id="node12" class="node">
<title>WaitingOnWorker</title>
<polygon fill="none" stroke="#000000" points="911.1448,-186 771.1448,-186 771.1448,-150 911.1448,-150 911.1448,-186"/>
<text text-anchor="middle" x="841.1448" y="-164.3" font-family="Courier,monospace" font-size="14.00" fill="#000000">WaitingOnWorker</text>
</g>
<!-- WaitingOnDependency&#45;&gt;WaitingOnWorker -->
<g id="edge16" class="edge">
<title>WaitingOnDependency&#45;&gt;WaitingOnWorker</title>
<path fill="none" stroke="#000000" d="M882.0393,-199.9489C878.9064,-197.5013 875.6499,-194.9571 872.4036,-192.421"/>
<polygon fill="#000000" stroke="#000000" points="874.4663,-189.591 864.4313,-186.1926 870.1568,-195.1072 874.4663,-189.591"/>
</g>
<!-- DependencyFailed -->
<g id="node16" class="node">
<title>DependencyFailed</title>
<polygon fill="none" stroke="#000000" points="699.6448,-36 550.6448,-36 550.6448,0 699.6448,0 699.6448,-36"/>
<text text-anchor="middle" x="625.1448" y="-14.3" font-family="Courier,monospace" font-size="14.00" fill="#000000">DependencyFailed</text>
</g>
<!-- WaitingOnDependency&#45;&gt;DependencyFailed -->
<g id="edge17" class="edge">
<title>WaitingOnDependency&#45;&gt;DependencyFailed</title>
<path fill="none" stroke="#000000" d="M818.3237,-202.8574C794.5907,-197.7758 772.5473,-191.8954 762.1448,-186 703.4356,-152.7282 659.7588,-83.6479 638.8579,-45.2426"/>
<polygon fill="#000000" stroke="#000000" points="641.8244,-43.3664 634.0395,-36.1799 635.6437,-46.6526 641.8244,-43.3664"/>
</g>
<!-- WaitingOnDependency&#45;&gt;CancelComplete -->
<g id="edge18" class="edge">
<title>WaitingOnDependency&#45;&gt;CancelComplete</title>
<path fill="none" stroke="#000000" d="M920.692,-199.8846C941.0395,-175.426 976.7384,-129.8397 999.1448,-86 1005.5698,-73.429 1010.8122,-58.6683 1014.6606,-46.1174"/>
<polygon fill="#000000" stroke="#000000" points="1018.1158,-46.7712 1017.5607,-36.191 1011.3967,-44.8081 1018.1158,-46.7712"/>
</g>
<!-- Working -->
<g id="node13" class="node">
<title>Working</title>
<polygon fill="none" stroke="#000000" points="878.1448,-136 804.1448,-136 804.1448,-100 878.1448,-100 878.1448,-136"/>
<text text-anchor="middle" x="841.1448" y="-114.3" font-family="Courier,monospace" font-size="14.00" fill="#000000">Working</text>
</g>
<!-- WaitingOnWorker&#45;&gt;Working -->
<g id="edge19" class="edge">
<title>WaitingOnWorker&#45;&gt;Working</title>
<path fill="none" stroke="#000000" d="M834.6321,-149.9489C834.5538,-148.83 834.4949,-147.6909 834.4553,-146.5416"/>
<polygon fill="#000000" stroke="#000000" points="837.9604,-146.2478 834.6223,-136.1926 830.9613,-146.1348 837.9604,-146.2478"/>
</g>
<!-- WaitingOnWorker&#45;&gt;DependencyFailed -->
<g id="edge21" class="edge">
<title>WaitingOnWorker&#45;&gt;DependencyFailed</title>
<path fill="none" stroke="#000000" d="M815.0901,-149.9065C776.1687,-122.8777 702.8014,-71.9283 659.5264,-41.8762"/>
<polygon fill="#000000" stroke="#000000" points="661.5019,-38.9869 651.2918,-36.1577 657.5091,-44.7365 661.5019,-38.9869"/>
</g>
<!-- WaitingOnWorker&#45;&gt;CancelComplete -->
<g id="edge20" class="edge">
<title>WaitingOnWorker&#45;&gt;CancelComplete</title>
<path fill="none" stroke="#000000" d="M876.5925,-149.9415C903.9051,-135.0161 941.6854,-112.0952 970.1448,-86 983.4436,-73.8059 995.8238,-57.8841 1005.1657,-44.5128"/>
<polygon fill="#000000" stroke="#000000" points="1008.1171,-46.3967 1010.845,-36.1591 1002.3283,-42.4611 1008.1171,-46.3967"/>
</g>
<!-- Working&#45;&gt;WaitingOnWorker -->
<g id="edge24" class="edge">
<title>Working&#45;&gt;WaitingOnWorker</title>
<path fill="none" stroke="#000000" d="M847.6672,-136.1926C847.7439,-137.3132 847.8012,-138.4535 847.8391,-139.6036"/>
<polygon fill="#000000" stroke="#000000" points="844.3336,-139.8889 847.6574,-149.9489 851.3325,-140.0119 844.3336,-139.8889"/>
</g>
<!-- JobComplete -->
<g id="node14" class="node">
<title>JobComplete</title>
<polygon fill="none" stroke="#000000" points="824.6448,-36 717.6448,-36 717.6448,0 824.6448,0 824.6448,-36"/>
<text text-anchor="middle" x="771.1448" y="-14.3" font-family="Courier,monospace" font-size="14.00" fill="#000000">JobComplete</text>
</g>
<!-- Working&#45;&gt;JobComplete -->
<g id="edge22" class="edge">
<title>Working&#45;&gt;JobComplete</title>
<path fill="none" stroke="#000000" d="M828.3057,-99.6585C817.5502,-84.2935 802.0518,-62.1529 789.9056,-44.8012"/>
<polygon fill="#000000" stroke="#000000" points="792.5044,-42.4105 783.9024,-36.2253 786.7698,-46.4247 792.5044,-42.4105"/>
</g>
<!-- JobFailed -->
<g id="node15" class="node">
<title>JobFailed</title>
<polygon fill="none" stroke="#000000" points="933.6448,-36 842.6448,-36 842.6448,0 933.6448,0 933.6448,-36"/>
<text text-anchor="middle" x="888.1448" y="-14.3" font-family="Courier,monospace" font-size="14.00" fill="#000000">JobFailed</text>
</g>
<!-- Working&#45;&gt;JobFailed -->
<g id="edge23" class="edge">
<title>Working&#45;&gt;JobFailed</title>
<path fill="none" stroke="#000000" d="M831.1374,-99.7546C824.6902,-85.3231 819.0544,-65.1506 828.1448,-50 829.9366,-47.0137 832.1121,-44.2907 834.5593,-41.8099"/>
<polygon fill="#000000" stroke="#000000" points="837.1835,-44.1775 842.603,-35.0737 832.6892,-38.8108 837.1835,-44.1775"/>
</g>
<!-- CancelPending -->
<g id="node17" class="node">
<title>CancelPending</title>
<polygon fill="none" stroke="#000000" points="961.1448,-86 837.1448,-86 837.1448,-50 961.1448,-50 961.1448,-86"/>
<text text-anchor="middle" x="899.1448" y="-64.3" font-family="Courier,monospace" font-size="14.00" fill="#000000">CancelPending</text>
</g>
<!-- Working&#45;&gt;CancelPending -->
<g id="edge25" class="edge">
<title>Working&#45;&gt;CancelPending</title>
<path fill="none" stroke="#000000" d="M862.0841,-99.9489C864.761,-97.6411 867.5376,-95.2476 870.312,-92.8558"/>
<polygon fill="#000000" stroke="#000000" points="872.7525,-95.373 878.0413,-86.1926 868.1819,-90.0711 872.7525,-95.373"/>
</g>
<!-- CancelPending&#45;&gt;CancelComplete -->
<g id="edge26" class="edge">
<title>CancelPending&#45;&gt;CancelComplete</title>
<path fill="none" stroke="#000000" d="M943.5506,-49.9489C951.65,-46.6564 960.1791,-43.1893 968.5123,-39.8018"/>
<polygon fill="#000000" stroke="#000000" points="969.8583,-43.0329 977.8041,-36.0247 967.2222,-36.5482 969.8583,-43.0329"/>
</g>
</g>
</svg>
