<?xml version="1.0" encoding="UTF-8" standalone="no"?>
<!DOCTYPE svg PUBLIC "-//W3C//DTD SVG 1.1//EN"
 "http://www.w3.org/Graphics/SVG/1.1/DTD/svg11.dtd">
<!-- Generated by graphviz version 2.40.1 (20161225.0304)
 -->
<!-- Title: STATES Pages: 1 -->
<svg width="1249pt" height="344pt"
 viewBox="0.00 0.00 1249.44 344.00" xmlns="http://www.w3.org/2000/svg" xmlns:xlink="http://www.w3.org/1999/xlink">
<g id="graph0" class="graph" transform="scale(1 1) rotate(0) translate(4 340)">
<title>STATES</title>
<polygon fill="#ffffff" stroke="transparent" points="-4,4 -4,-340 1245.4378,-340 1245.4378,4 -4,4"/>
<!-- Triggered -->
<g id="node1" class="node">
<title>Triggered</title>
<ellipse fill="none" stroke="#000000" cx="433.8962" cy="-318" rx="59.2899" ry="18"/>
<text text-anchor="middle" x="433.8962" y="-314.3" font-family="Courier,monospace" font-size="14.00" fill="#000000">Triggered</text>
</g>
<!-- Created -->
<g id="node2" class="node">
<title>Created</title>
<ellipse fill="none" stroke="#000000" cx="433.8962" cy="-268" rx="48.1917" ry="18"/>
<text text-anchor="middle" x="433.8962" y="-264.3" font-family="Courier,monospace" font-size="14.00" fill="#000000">Created</text>
</g>
<!-- Triggered&#45;&gt;Created -->
<g id="edge1" class="edge">
<title>Triggered&#45;&gt;Created</title>
<path fill="none" stroke="#000000" d="M433.8962,-299.9489C433.8962,-298.83 433.8962,-297.6909 433.8962,-296.5416"/>
<polygon fill="#000000" stroke="#000000" points="437.3963,-296.1926 433.8962,-286.1926 430.3963,-296.1926 437.3963,-296.1926"/>
</g>
<!-- Failed -->
<g id="node7" class="node">
<title>Failed</title>
<ellipse fill="none" stroke="#000000" cx="42.8962" cy="-18" rx="42.7926" ry="18"/>
<text text-anchor="middle" x="42.8962" y="-14.3" font-family="Courier,monospace" font-size="14.00" fill="#000000">Failed</text>
</g>
<!-- Triggered&#45;&gt;Failed -->
<g id="edge2" class="edge">
<title>Triggered&#45;&gt;Failed</title>
<path fill="none" stroke="#000000" d="M374.696,-316.4641C257.01,-311.7971 4.8962,-293.0419 4.8962,-218 4.8962,-218 4.8962,-218 4.8962,-118 4.8962,-91.8246 16.4137,-64.1612 26.767,-44.5816"/>
<polygon fill="#000000" stroke="#000000" points="29.9235,-46.106 31.7005,-35.6612 23.7979,-42.7182 29.9235,-46.106"/>
</g>
<!-- Cancelled -->
<g id="node9" class="node">
<title>Cancelled</title>
<ellipse fill="none" stroke="#000000" cx="560.8962" cy="-18" rx="59.2899" ry="18"/>
<text text-anchor="middle" x="560.8962" y="-14.3" font-family="Courier,monospace" font-size="14.00" fill="#000000">Cancelled</text>
</g>
<!-- Triggered&#45;&gt;Cancelled -->
<g id="edge3" class="edge">
<title>Triggered&#45;&gt;Cancelled</title>
<path fill="none" stroke="#000000" d="M489.4023,-311.5584C543.8952,-301.7797 618.8962,-277.5112 618.8962,-218 618.8962,-218 618.8962,-218 618.8962,-118 618.8962,-89.5509 601.1136,-61.9474 585.2413,-42.9754"/>
<polygon fill="#000000" stroke="#000000" points="587.8307,-40.6196 578.6133,-35.3957 582.5612,-45.2275 587.8307,-40.6196"/>
</g>
<!-- Queued -->
<g id="node3" class="node">
<title>Queued</title>
<ellipse fill="none" stroke="#000000" cx="433.8962" cy="-218" rx="42.7926" ry="18"/>
<text text-anchor="middle" x="433.8962" y="-214.3" font-family="Courier,monospace" font-size="14.00" fill="#000000">Queued</text>
</g>
<!-- Created&#45;&gt;Queued -->
<g id="edge4" class="edge">
<title>Created&#45;&gt;Queued</title>
<path fill="none" stroke="#000000" d="M433.8962,-249.9489C433.8962,-248.83 433.8962,-247.6909 433.8962,-246.5416"/>
<polygon fill="#000000" stroke="#000000" points="437.3963,-246.1926 433.8962,-236.1926 430.3963,-246.1926 437.3963,-246.1926"/>
</g>
<!-- Created&#45;&gt;Failed -->
<g id="edge5" class="edge">
<title>Created&#45;&gt;Failed</title>
<path fill="none" stroke="#000000" d="M385.9519,-265.7965C281.5437,-259.6894 42.8962,-238.0669 42.8962,-168 42.8962,-168 42.8962,-168 42.8962,-118 42.8962,-93.7182 42.8962,-66.1198 42.8962,-46.0767"/>
<polygon fill="#000000" stroke="#000000" points="46.3963,-46.0652 42.8962,-36.0652 39.3963,-46.0653 46.3963,-46.0652"/>
</g>
<!-- Created&#45;&gt;Cancelled -->
<g id="edge6" class="edge">
<title>Created&#45;&gt;Cancelled</title>
<path fill="none" stroke="#000000" d="M475.2351,-258.7228C518.714,-246.2352 580.8962,-219.3922 580.8962,-168 580.8962,-168 580.8962,-168 580.8962,-118 580.8962,-93.274 574.9441,-65.7651 569.534,-45.8682"/>
<polygon fill="#000000" stroke="#000000" points="572.8901,-44.874 566.7887,-36.2124 566.157,-46.7884 572.8901,-44.874"/>
</g>
<!-- Dispatching -->
<g id="node4" class="node">
<title>Dispatching</title>
<ellipse fill="none" stroke="#000000" cx="357.8962" cy="-168" rx="69.5877" ry="18"/>
<text text-anchor="middle" x="357.8962" y="-164.3" font-family="Courier,monospace" font-size="14.00" fill="#000000">Dispatching</text>
</g>
<!-- Queued&#45;&gt;Dispatching -->
<g id="edge7" class="edge">
<title>Queued&#45;&gt;Dispatching</title>
<path fill="none" stroke="#000000" d="M410.6807,-202.7267C404.7985,-198.8568 398.3564,-194.6185 392.0564,-190.4738"/>
<polygon fill="#000000" stroke="#000000" points="393.8976,-187.4956 383.6197,-184.9234 390.0502,-193.3435 393.8976,-187.4956"/>
</g>
<!-- Queued&#45;&gt;Cancelled -->
<g id="edge8" class="edge">
<title>Queued&#45;&gt;Cancelled</title>
<path fill="none" stroke="#000000" d="M446.7023,-200.4388C464.7015,-175.4909 498.1594,-128.1321 523.8962,-86 531.9916,-72.7475 540.3169,-57.6051 547.0154,-44.9787"/>
<polygon fill="#000000" stroke="#000000" points="550.2394,-46.3673 551.7899,-35.8865 544.0419,-43.1129 550.2394,-46.3673"/>
</g>
<!-- Complete -->
<g id="node5" class="node">
<title>Complete</title>
<ellipse fill="none" stroke="#000000" cx="314.8962" cy="-68" rx="53.8905" ry="18"/>
<text text-anchor="middle" x="314.8962" y="-64.3" font-family="Courier,monospace" font-size="14.00" fill="#000000">Complete</text>
</g>
<!-- Dispatching&#45;&gt;Complete -->
<g id="edge9" class="edge">
<title>Dispatching&#45;&gt;Complete</title>
<path fill="none" stroke="#000000" d="M350.0093,-149.6585C343.4831,-134.4812 334.114,-112.6927 326.695,-95.4391"/>
<polygon fill="#000000" stroke="#000000" points="329.7541,-93.6929 322.5884,-85.8888 323.3234,-96.4581 329.7541,-93.6929"/>
</g>
<!-- FailureCleanup -->
<g id="node6" class="node">
<title>FailureCleanup</title>
<ellipse fill="none" stroke="#000000" cx="156.8962" cy="-68" rx="85.5853" ry="18"/>
<text text-anchor="middle" x="156.8962" y="-64.3" font-family="Courier,monospace" font-size="14.00" fill="#000000">FailureCleanup</text>
</g>
<!-- Dispatching&#45;&gt;FailureCleanup -->
<g id="edge10" class="edge">
<title>Dispatching&#45;&gt;FailureCleanup</title>
<path fill="none" stroke="#000000" d="M325.6021,-151.9333C291.4329,-134.9337 237.3473,-108.0254 199.6575,-89.2743"/>
<polygon fill="#000000" stroke="#000000" points="200.9629,-86.0145 190.4507,-84.6938 197.8448,-92.2817 200.9629,-86.0145"/>
</g>
<!-- Cancelling -->
<g id="node8" class="node">
<title>Cancelling</title>
<ellipse fill="none" stroke="#000000" cx="450.8962" cy="-68" rx="64.189" ry="18"/>
<text text-anchor="middle" x="450.8962" y="-64.3" font-family="Courier,monospace" font-size="14.00" fill="#000000">Cancelling</text>
</g>
<!-- Dispatching&#45;&gt;Cancelling -->
<g id="edge11" class="edge">
<title>Dispatching&#45;&gt;Cancelling</title>
<path fill="none" stroke="#000000" d="M374.5227,-150.122C389.2023,-134.3375 410.7701,-111.1464 427.2453,-93.4311"/>
<polygon fill="#000000" stroke="#000000" points="430.1664,-95.4295 434.4136,-85.7232 425.0405,-90.6624 430.1664,-95.4295"/>
</g>
<!-- FailureCleanup&#45;&gt;Failed -->
<g id="edge12" class="edge">
<title>FailureCleanup&#45;&gt;Failed</title>
<path fill="none" stroke="#000000" d="M119.5683,-51.6281C107.5785,-46.3694 94.2651,-40.5302 82.142,-35.2131"/>
<polygon fill="#000000" stroke="#000000" points="83.2864,-31.8932 72.7227,-31.0818 80.4748,-38.3037 83.2864,-31.8932"/>
</g>
<!-- Cancelling&#45;&gt;Cancelled -->
<g id="edge13" class="edge">
<title>Cancelling&#45;&gt;Cancelled</title>
<path fill="none" stroke="#000000" d="M484.7974,-52.5904C495.4499,-47.7483 507.3471,-42.3405 518.5113,-37.2659"/>
<polygon fill="#000000" stroke="#000000" points="520.0181,-40.4256 527.6734,-33.1013 517.1214,-34.0531 520.0181,-40.4256"/>
</g>
<!-- Pending -->
<g id="node10" class="node">
<title>Pending</title>
<polygon fill="none" stroke="#000000" points="720.8962,-286 646.8962,-286 646.8962,-250 720.8962,-250 720.8962,-286"/>
<text text-anchor="middle" x="683.8962" y="-264.3" font-family="Courier,monospace" font-size="14.00" fill="#000000">Pending</text>
</g>
<!-- Schedulable -->
<g id="node12" class="node">
<title>Schedulable</title>
<polygon fill="none" stroke="#000000" points="820.3962,-236 713.3962,-236 713.3962,-200 820.3962,-200 820.3962,-236"/>
<text text-anchor="middle" x="766.8962" y="-214.3" font-family="Courier,monospace" font-size="14.00" fill="#000000">Schedulable</text>
</g>
<!-- Pending&#45;&gt;Schedulable -->
<g id="edge14" class="edge">
<title>Pending&#45;&gt;Schedulable</title>
<path fill="none" stroke="#000000" d="M713.8611,-249.9489C718.5626,-247.1166 723.4786,-244.1552 728.3405,-241.2263"/>
<polygon fill="#000000" stroke="#000000" points="730.2155,-244.1829 736.9753,-236.0247 726.6034,-238.1868 730.2155,-244.1829"/>
</g>
<!-- CancelComplete -->
<g id="node18" class="node">
<title>CancelComplete</title>
<polygon fill="none" stroke="#000000" points="999.8962,-36 867.8962,-36 867.8962,0 999.8962,0 999.8962,-36"/>
<text text-anchor="middle" x="933.8962" y="-14.3" font-family="Courier,monospace" font-size="14.00" fill="#000000">CancelComplete</text>
</g>
<!-- Pending&#45;&gt;CancelComplete -->
<g id="edge15" class="edge">
<title>Pending&#45;&gt;CancelComplete</title>
<path fill="none" stroke="#000000" d="M681.293,-249.9786C678.635,-229.9898 674.8962,-196.7616 674.8962,-168 674.8962,-168 674.8962,-168 674.8962,-118 674.8962,-83.16 685.0876,-69.5931 713.8962,-50 736.8702,-34.3751 803.5851,-26.2037 857.5761,-22.0442"/>
<polygon fill="#000000" stroke="#000000" points="858.1252,-25.5134 867.8414,-21.289 857.6116,-18.5322 858.1252,-25.5134"/>
</g>
<!-- Dispatched -->
<g id="node11" class="node">
<title>Dispatched</title>
<polygon fill="none" stroke="#000000" points="1048.3962,-136 949.3962,-136 949.3962,-100 1048.3962,-100 1048.3962,-136"/>
<text text-anchor="middle" x="998.8962" y="-114.3" font-family="Courier,monospace" font-size="14.00" fill="#000000">Dispatched</text>
</g>
<!-- Built -->
<g id="node14" class="node">
<title>Built</title>
<polygon fill="none" stroke="#000000" points="1074.8962,-86 1016.8962,-86 1016.8962,-50 1074.8962,-50 1074.8962,-86"/>
<text text-anchor="middle" x="1045.8962" y="-64.3" font-family="Courier,monospace" font-size="14.00" fill="#000000">Built</text>
</g>
<!-- Dispatched&#45;&gt;Built -->
<g id="edge22" class="edge">
<title>Dispatched&#45;&gt;Built</title>
<path fill="none" stroke="#000000" d="M1015.8643,-99.9489C1017.8363,-97.8509 1019.8751,-95.6821 1021.9186,-93.5081"/>
<polygon fill="#000000" stroke="#000000" points="1024.4962,-95.8761 1028.7952,-86.1926 1019.3958,-91.0817 1024.4962,-95.8761"/>
</g>
<!-- JobFailed -->
<g id="node15" class="node">
<title>JobFailed</title>
<polygon fill="none" stroke="#000000" points="998.3962,-86 907.3962,-86 907.3962,-50 998.3962,-50 998.3962,-86"/>
<text text-anchor="middle" x="952.8962" y="-64.3" font-family="Courier,monospace" font-size="14.00" fill="#000000">JobFailed</text>
</g>
<!-- Dispatched&#45;&gt;JobFailed -->
<g id="edge23" class="edge">
<title>Dispatched&#45;&gt;JobFailed</title>
<path fill="none" stroke="#000000" d="M982.2891,-99.9489C980.4877,-97.9908 978.6294,-95.9709 976.7636,-93.9428"/>
<polygon fill="#000000" stroke="#000000" points="978.9797,-91.1822 969.6334,-86.1926 973.8282,-95.9216 978.9797,-91.1822"/>
</g>
<!-- CancelPending -->
<g id="node17" class="node">
<title>CancelPending</title>
<polygon fill="none" stroke="#000000" points="1216.8962,-86 1092.8962,-86 1092.8962,-50 1216.8962,-50 1216.8962,-86"/>
<text text-anchor="middle" x="1154.8962" y="-64.3" font-family="Courier,monospace" font-size="14.00" fill="#000000">CancelPending</text>
</g>
<!-- Dispatched&#45;&gt;CancelPending -->
<g id="edge24" class="edge">
<title>Dispatched&#45;&gt;CancelPending</title>
<path fill="none" stroke="#000000" d="M1048.6845,-102.0422C1061.4565,-97.9486 1075.3949,-93.4812 1088.8475,-89.1695"/>
<polygon fill="#000000" stroke="#000000" points="1090.079,-92.4502 1098.5335,-86.065 1087.9424,-85.7842 1090.079,-92.4502"/>
</g>
<!-- Eligible -->
<g id="node13" class="node">
<title>Eligible</title>
<polygon fill="none" stroke="#000000" points="957.3962,-186 874.3962,-186 874.3962,-150 957.3962,-150 957.3962,-186"/>
<text text-anchor="middle" x="915.8962" y="-164.3" font-family="Courier,monospace" font-size="14.00" fill="#000000">Eligible</text>
</g>
<!-- Schedulable&#45;&gt;Eligible -->
<g id="edge16" class="edge">
<title>Schedulable&#45;&gt;Eligible</title>
<path fill="none" stroke="#000000" d="M820.6886,-199.9489C835.047,-195.1306 850.5202,-189.9383 864.7329,-185.1689"/>
<polygon fill="#000000" stroke="#000000" points="865.9749,-188.444 874.3419,-181.9444 863.7479,-181.8077 865.9749,-188.444"/>
</g>
<!-- DependencyFailed -->
<g id="node16" class="node">
<title>DependencyFailed</title>
<polygon fill="none" stroke="#000000" points="889.3962,-86 740.3962,-86 740.3962,-50 889.3962,-50 889.3962,-86"/>
<text text-anchor="middle" x="814.8962" y="-64.3" font-family="Courier,monospace" font-size="14.00" fill="#000000">DependencyFailed</text>
</g>
<!-- Schedulable&#45;&gt;DependencyFailed -->
<g id="edge17" class="edge">
<title>Schedulable&#45;&gt;DependencyFailed</title>
<path fill="none" stroke="#000000" d="M772.6861,-199.9065C780.9749,-174.0039 796.2938,-126.1325 806.0199,-95.7383"/>
<polygon fill="#000000" stroke="#000000" points="809.3714,-96.7487 809.0857,-86.1577 802.7044,-94.6152 809.3714,-96.7487"/>
</g>
<!-- Schedulable&#45;&gt;CancelComplete -->
<g id="edge18" class="edge">
<title>Schedulable&#45;&gt;CancelComplete</title>
<path fill="none" stroke="#000000" d="M754.4619,-199.9058C733.009,-166.2488 694.7469,-93.4976 731.8962,-50 740.2501,-40.2186 803.8714,-31.2574 857.5143,-25.322"/>
<polygon fill="#000000" stroke="#000000" points="858.1799,-28.7704 867.7442,-24.2127 857.4252,-21.8112 858.1799,-28.7704"/>
</g>
<!-- Eligible&#45;&gt;Dispatched -->
<g id="edge19" class="edge">
<title>Eligible&#45;&gt;Dispatched</title>
<path fill="none" stroke="#000000" d="M945.8611,-149.9489C950.5626,-147.1166 955.4786,-144.1552 960.3405,-141.2263"/>
<polygon fill="#000000" stroke="#000000" points="962.2155,-144.1829 968.9753,-136.0247 958.6034,-138.1868 962.2155,-144.1829"/>
</g>
<!-- Eligible&#45;&gt;DependencyFailed -->
<g id="edge21" class="edge">
<title>Eligible&#45;&gt;DependencyFailed</title>
<path fill="none" stroke="#000000" d="M897.3712,-149.6585C881.4255,-133.8706 858.2545,-110.929 840.5297,-93.3797"/>
<polygon fill="#000000" stroke="#000000" points="842.8724,-90.7739 833.3037,-86.2253 837.9474,-95.7483 842.8724,-90.7739"/>
</g>
<!-- Eligible&#45;&gt;CancelComplete -->
<g id="edge20" class="edge">
<title>Eligible&#45;&gt;CancelComplete</title>
<path fill="none" stroke="#000000" d="M957.657,-166.2622C1059.1045,-160.6365 1304.5979,-137.7978 1225.8962,-50 1211.696,-34.1587 1091.9496,-25.373 1010.282,-21.1754"/>
<polygon fill="#000000" stroke="#000000" points="1010.186,-17.6663 1000.0235,-20.6618 1009.8359,-24.6575 1010.186,-17.6663"/>
</g>
<!-- CancelPending&#45;&gt;CancelComplete -->
<g id="edge25" class="edge">
<title>CancelPending&#45;&gt;CancelComplete</title>
<path fill="none" stroke="#000000" d="M1092.5909,-52.0614C1089.654,-51.3551 1086.7444,-50.6646 1083.8962,-50 1059.9586,-44.4144 1033.7801,-38.6962 1010.0896,-33.6673"/>
<polygon fill="#000000" stroke="#000000" points="1010.6102,-30.2001 1000.1026,-31.5566 1009.1627,-37.0488 1010.6102,-30.2001"/>
</g>
</g>
</svg>
