<?xml version="1.0" encoding="UTF-8" standalone="no"?>
<!DOCTYPE svg PUBLIC "-//W3C//DTD SVG 1.1//EN"
 "http://www.w3.org/Graphics/SVG/1.1/DTD/svg11.dtd">
<!-- Generated by graphviz version 2.40.1 (20161225.0304)
 -->
<!-- Title: STATES Pages: 1 -->
<svg width="1265pt" height="344pt"
 viewBox="0.00 0.00 1265.40 344.00" xmlns="http://www.w3.org/2000/svg" xmlns:xlink="http://www.w3.org/1999/xlink">
<g id="graph0" class="graph" transform="scale(1 1) rotate(0) translate(4 340)">
<title>STATES</title>
<polygon fill="#ffffff" stroke="transparent" points="-4,4 -4,-340 1261.3962,-340 1261.3962,4 -4,4"/>
<!-- Triggered -->
<g id="node1" class="node">
<title>Triggered</title>
<ellipse fill="none" stroke="#000000" cx="444.8962" cy="-318" rx="59.2899" ry="18"/>
<text text-anchor="middle" x="444.8962" y="-314.3" font-family="Courier,monospace" font-size="14.00" fill="#000000">Triggered</text>
</g>
<!-- Created -->
<g id="node2" class="node">
<title>Created</title>
<ellipse fill="none" stroke="#000000" cx="444.8962" cy="-268" rx="48.1917" ry="18"/>
<text text-anchor="middle" x="444.8962" y="-264.3" font-family="Courier,monospace" font-size="14.00" fill="#000000">Created</text>
</g>
<!-- Triggered&#45;&gt;Created -->
<g id="edge1" class="edge">
<title>Triggered&#45;&gt;Created</title>
<path fill="none" stroke="#000000" d="M444.8962,-299.9489C444.8962,-298.83 444.8962,-297.6909 444.8962,-296.5416"/>
<polygon fill="#000000" stroke="#000000" points="448.3963,-296.1926 444.8962,-286.1926 441.3963,-296.1926 448.3963,-296.1926"/>
</g>
<!-- Failed -->
<g id="node7" class="node">
<title>Failed</title>
<ellipse fill="none" stroke="#000000" cx="42.8962" cy="-18" rx="42.7926" ry="18"/>
<text text-anchor="middle" x="42.8962" y="-14.3" font-family="Courier,monospace" font-size="14.00" fill="#000000">Failed</text>
</g>
<!-- Triggered&#45;&gt;Failed -->
<g id="edge2" class="edge">
<title>Triggered&#45;&gt;Failed</title>
<path fill="none" stroke="#000000" d="M390.0595,-311.2465C272.1098,-295.9763 4.8962,-257.0705 4.8962,-218 4.8962,-218 4.8962,-218 4.8962,-118 4.8962,-91.8246 16.4137,-64.1612 26.767,-44.5816"/>
<polygon fill="#000000" stroke="#000000" points="29.9235,-46.106 31.7005,-35.6612 23.7979,-42.7182 29.9235,-46.106"/>
</g>
<!-- Cancelled -->
<g id="node9" class="node">
<title>Cancelled</title>
<ellipse fill="none" stroke="#000000" cx="566.8962" cy="-18" rx="59.2899" ry="18"/>
<text text-anchor="middle" x="566.8962" y="-14.3" font-family="Courier,monospace" font-size="14.00" fill="#000000">Cancelled</text>
</g>
<!-- Triggered&#45;&gt;Cancelled -->
<g id="edge3" class="edge">
<title>Triggered&#45;&gt;Cancelled</title>
<path fill="none" stroke="#000000" d="M498.5217,-310.1834C549.6471,-299.3411 618.8962,-274.2695 618.8962,-218 618.8962,-218 618.8962,-218 618.8962,-118 618.8962,-90.2156 602.8996,-62.4893 588.6511,-43.3038"/>
<polygon fill="#000000" stroke="#000000" points="591.3939,-41.1293 582.4979,-35.3751 585.8639,-45.421 591.3939,-41.1293"/>
</g>
<!-- Queued -->
<g id="node3" class="node">
<title>Queued</title>
<ellipse fill="none" stroke="#000000" cx="444.8962" cy="-218" rx="42.7926" ry="18"/>
<text text-anchor="middle" x="444.8962" y="-214.3" font-family="Courier,monospace" font-size="14.00" fill="#000000">Queued</text>
</g>
<!-- Created&#45;&gt;Queued -->
<g id="edge4" class="edge">
<title>Created&#45;&gt;Queued</title>
<path fill="none" stroke="#000000" d="M444.8962,-249.9489C444.8962,-248.83 444.8962,-247.6909 444.8962,-246.5416"/>
<polygon fill="#000000" stroke="#000000" points="448.3963,-246.1926 444.8962,-236.1926 441.3963,-246.1926 448.3963,-246.1926"/>
</g>
<!-- Created&#45;&gt;Failed -->
<g id="edge5" class="edge">
<title>Created&#45;&gt;Failed</title>
<path fill="none" stroke="#000000" d="M396.8049,-266.1242C290.1012,-260.6532 42.8962,-240.1883 42.8962,-168 42.8962,-168 42.8962,-168 42.8962,-118 42.8962,-93.7182 42.8962,-66.1198 42.8962,-46.0767"/>
<polygon fill="#000000" stroke="#000000" points="46.3963,-46.0652 42.8962,-36.0652 39.3963,-46.0653 46.3963,-46.0652"/>
</g>
<!-- Created&#45;&gt;Cancelled -->
<g id="edge6" class="edge">
<title>Created&#45;&gt;Cancelled</title>
<path fill="none" stroke="#000000" d="M484.233,-257.4065C524.399,-243.9204 580.8962,-216.3563 580.8962,-168 580.8962,-168 580.8962,-168 580.8962,-118 580.8962,-93.4814 576.7174,-65.905 572.9258,-45.9305"/>
<polygon fill="#000000" stroke="#000000" points="576.3265,-45.086 570.9456,-35.9593 569.4606,-46.4496 576.3265,-45.086"/>
</g>
<!-- Dispatching -->
<g id="node4" class="node">
<title>Dispatching</title>
<ellipse fill="none" stroke="#000000" cx="379.8962" cy="-168" rx="69.5877" ry="18"/>
<text text-anchor="middle" x="379.8962" y="-164.3" font-family="Courier,monospace" font-size="14.00" fill="#000000">Dispatching</text>
</g>
<!-- Queued&#45;&gt;Dispatching -->
<g id="edge7" class="edge">
<title>Queued&#45;&gt;Dispatching</title>
<path fill="none" stroke="#000000" d="M424.3298,-202.1797C419.9596,-198.818 415.2551,-195.1991 410.5998,-191.6182"/>
<polygon fill="#000000" stroke="#000000" points="412.4168,-188.6001 402.3565,-185.2772 408.1488,-194.1485 412.4168,-188.6001"/>
</g>
<!-- Queued&#45;&gt;Cancelled -->
<g id="edge8" class="edge">
<title>Queued&#45;&gt;Cancelled</title>
<path fill="none" stroke="#000000" d="M455.7229,-200.2513C477.2466,-164.9665 525.5104,-85.8455 550.7771,-44.4247"/>
<polygon fill="#000000" stroke="#000000" points="553.8741,-46.0686 556.0938,-35.7089 547.8982,-42.4233 553.8741,-46.0686"/>
</g>
<!-- Complete -->
<g id="node5" class="node">
<title>Complete</title>
<ellipse fill="none" stroke="#000000" cx="314.8962" cy="-68" rx="53.8905" ry="18"/>
<text text-anchor="middle" x="314.8962" y="-64.3" font-family="Courier,monospace" font-size="14.00" fill="#000000">Complete</text>
</g>
<!-- Dispatching&#45;&gt;Complete -->
<g id="edge9" class="edge">
<title>Dispatching&#45;&gt;Complete</title>
<path fill="none" stroke="#000000" d="M368.2755,-150.122C358.2004,-134.6219 343.483,-111.9797 332.0522,-94.3939"/>
<polygon fill="#000000" stroke="#000000" points="334.8008,-92.2002 326.4163,-85.7232 328.9317,-96.0151 334.8008,-92.2002"/>
</g>
<!-- FailureCleanup -->
<g id="node6" class="node">
<title>FailureCleanup</title>
<ellipse fill="none" stroke="#000000" cx="156.8962" cy="-68" rx="85.5853" ry="18"/>
<text text-anchor="middle" x="156.8962" y="-64.3" font-family="Courier,monospace" font-size="14.00" fill="#000000">FailureCleanup</text>
</g>
<!-- Dispatching&#45;&gt;FailureCleanup -->
<g id="edge10" class="edge">
<title>Dispatching&#45;&gt;FailureCleanup</title>
<path fill="none" stroke="#000000" d="M345.0524,-152.375C306.6734,-135.1647 244.8093,-107.4229 202.5733,-88.483"/>
<polygon fill="#000000" stroke="#000000" points="203.9025,-85.2433 193.3458,-84.3451 201.0382,-91.6305 203.9025,-85.2433"/>
</g>
<!-- Cancelling -->
<g id="node8" class="node">
<title>Cancelling</title>
<ellipse fill="none" stroke="#000000" cx="450.8962" cy="-68" rx="64.189" ry="18"/>
<text text-anchor="middle" x="450.8962" y="-64.3" font-family="Courier,monospace" font-size="14.00" fill="#000000">Cancelling</text>
</g>
<!-- Dispatching&#45;&gt;Cancelling -->
<g id="edge11" class="edge">
<title>Dispatching&#45;&gt;Cancelling</title>
<path fill="none" stroke="#000000" d="M392.5896,-150.122C403.6956,-134.4797 419.966,-111.5636 432.4992,-93.9112"/>
<polygon fill="#000000" stroke="#000000" points="435.3773,-95.9033 438.3127,-85.7232 429.6696,-91.8508 435.3773,-95.9033"/>
</g>
<!-- FailureCleanup&#45;&gt;Failed -->
<g id="edge12" class="edge">
<title>FailureCleanup&#45;&gt;Failed</title>
<path fill="none" stroke="#000000" d="M119.5683,-51.6281C107.5785,-46.3694 94.2651,-40.5302 82.142,-35.2131"/>
<polygon fill="#000000" stroke="#000000" points="83.2864,-31.8932 72.7227,-31.0818 80.4748,-38.3037 83.2864,-31.8932"/>
</g>
<!-- Cancelling&#45;&gt;Cancelled -->
<g id="edge13" class="edge">
<title>Cancelling&#45;&gt;Cancelled</title>
<path fill="none" stroke="#000000" d="M486.0148,-52.8627C497.8115,-47.7779 511.1121,-42.0449 523.4691,-36.7186"/>
<polygon fill="#000000" stroke="#000000" points="524.8963,-39.9148 532.6941,-32.7423 522.1254,-33.4865 524.8963,-39.9148"/>
</g>
<!-- Pending -->
<g id="node10" class="node">
<title>Pending</title>
<polygon fill="none" stroke="#000000" points="721.8962,-286 647.8962,-286 647.8962,-250 721.8962,-250 721.8962,-286"/>
<text text-anchor="middle" x="684.8962" y="-264.3" font-family="Courier,monospace" font-size="14.00" fill="#000000">Pending</text>
</g>
<!-- Schedulable -->
<g id="node12" class="node">
<title>Schedulable</title>
<polygon fill="none" stroke="#000000" points="847.3962,-236 740.3962,-236 740.3962,-200 847.3962,-200 847.3962,-236"/>
<text text-anchor="middle" x="793.8962" y="-214.3" font-family="Courier,monospace" font-size="14.00" fill="#000000">Schedulable</text>
</g>
<!-- Pending&#45;&gt;Schedulable -->
<g id="edge14" class="edge">
<title>Pending&#45;&gt;Schedulable</title>
<path fill="none" stroke="#000000" d="M722.1029,-250.9327C729.6386,-247.476 737.6663,-243.7935 745.5221,-240.19"/>
<polygon fill="#000000" stroke="#000000" points="746.9953,-243.3649 754.6253,-236.0142 744.0767,-237.0024 746.9953,-243.3649"/>
</g>
<!-- CancelComplete -->
<g id="node18" class="node">
<title>CancelComplete</title>
<polygon fill="none" stroke="#000000" points="793.8962,-36 661.8962,-36 661.8962,0 793.8962,0 793.8962,-36"/>
<text text-anchor="middle" x="727.8962" y="-14.3" font-family="Courier,monospace" font-size="14.00" fill="#000000">CancelComplete</text>
</g>
<!-- Pending&#45;&gt;CancelComplete -->
<g id="edge15" class="edge">
<title>Pending&#45;&gt;CancelComplete</title>
<path fill="none" stroke="#000000" d="M682.293,-249.9786C679.635,-229.9898 675.8962,-196.7616 675.8962,-168 675.8962,-168 675.8962,-168 675.8962,-118 675.8962,-90.5566 691.5027,-63.1697 705.616,-44.0138"/>
<polygon fill="#000000" stroke="#000000" points="708.3998,-46.1354 711.7281,-36.0769 702.8537,-41.8644 708.3998,-46.1354"/>
</g>
<!-- Dispatched -->
<g id="node11" class="node">
<title>Dispatched</title>
<polygon fill="none" stroke="#000000" points="923.3962,-136 824.3962,-136 824.3962,-100 923.3962,-100 923.3962,-136"/>
<text text-anchor="middle" x="873.8962" y="-114.3" font-family="Courier,monospace" font-size="14.00" fill="#000000">Dispatched</text>
</g>
<!-- Eligible -->
<g id="node13" class="node">
<title>Eligible</title>
<polygon fill="none" stroke="#000000" points="915.3962,-186 832.3962,-186 832.3962,-150 915.3962,-150 915.3962,-186"/>
<text text-anchor="middle" x="873.8962" y="-164.3" font-family="Courier,monospace" font-size="14.00" fill="#000000">Eligible</text>
</g>
<!-- Dispatched&#45;&gt;Eligible -->
<g id="edge24" class="edge">
<title>Dispatched&#45;&gt;Eligible</title>
<path fill="none" stroke="#000000" d="M880.4187,-136.1926C880.4953,-137.3132 880.5526,-138.4535 880.5905,-139.6036"/>
<polygon fill="#000000" stroke="#000000" points="877.0851,-139.8889 880.4089,-149.9489 884.084,-140.0119 877.0851,-139.8889"/>
</g>
<!-- Built -->
<g id="node14" class="node">
<title>Built</title>
<polygon fill="none" stroke="#000000" points="947.8962,-86 889.8962,-86 889.8962,-50 947.8962,-50 947.8962,-86"/>
<text text-anchor="middle" x="918.8962" y="-64.3" font-family="Courier,monospace" font-size="14.00" fill="#000000">Built</text>
</g>
<!-- Dispatched&#45;&gt;Built -->
<g id="edge22" class="edge">
<title>Dispatched&#45;&gt;Built</title>
<path fill="none" stroke="#000000" d="M890.1422,-99.9489C891.9045,-97.9908 893.7224,-95.9709 895.5477,-93.9428"/>
<polygon fill="#000000" stroke="#000000" points="898.4347,-95.9669 902.5229,-86.1926 893.2316,-91.2842 898.4347,-95.9669"/>
</g>
<!-- JobFailed -->
<g id="node15" class="node">
<title>JobFailed</title>
<polygon fill="none" stroke="#000000" points="871.3962,-86 780.3962,-86 780.3962,-50 871.3962,-50 871.3962,-86"/>
<text text-anchor="middle" x="825.8962" y="-64.3" font-family="Courier,monospace" font-size="14.00" fill="#000000">JobFailed</text>
</g>
<!-- Dispatched&#45;&gt;JobFailed -->
<g id="edge23" class="edge">
<title>Dispatched&#45;&gt;JobFailed</title>
<path fill="none" stroke="#000000" d="M856.5671,-99.9489C854.5531,-97.8509 852.471,-95.6821 850.384,-93.5081"/>
<polygon fill="#000000" stroke="#000000" points="852.8113,-90.9826 843.3611,-86.1926 847.7616,-95.8304 852.8113,-90.9826"/>
</g>
<!-- CancelPending -->
<g id="node17" class="node">
<title>CancelPending</title>
<polygon fill="none" stroke="#000000" points="1089.8962,-86 965.8962,-86 965.8962,-50 1089.8962,-50 1089.8962,-86"/>
<text text-anchor="middle" x="1027.8962" y="-64.3" font-family="Courier,monospace" font-size="14.00" fill="#000000">CancelPending</text>
</g>
<!-- Dispatched&#45;&gt;CancelPending -->
<g id="edge25" class="edge">
<title>Dispatched&#45;&gt;CancelPending</title>
<path fill="none" stroke="#000000" d="M923.4704,-101.9045C935.8724,-97.8779 949.3662,-93.4967 962.4092,-89.262"/>
<polygon fill="#000000" stroke="#000000" points="963.8393,-92.4776 972.2698,-86.0605 961.6777,-85.8197 963.8393,-92.4776"/>
</g>
<!-- Schedulable&#45;&gt;Eligible -->
<g id="edge16" class="edge">
<title>Schedulable&#45;&gt;Eligible</title>
<path fill="none" stroke="#000000" d="M822.778,-199.9489C827.1963,-197.1874 831.8111,-194.3032 836.3825,-191.4461"/>
<polygon fill="#000000" stroke="#000000" points="838.4318,-194.2927 845.0568,-186.0247 834.7217,-188.3567 838.4318,-194.2927"/>
</g>
<!-- DependencyFailed -->
<g id="node16" class="node">
<title>DependencyFailed</title>
<polygon fill="none" stroke="#000000" points="1257.3962,-86 1108.3962,-86 1108.3962,-50 1257.3962,-50 1257.3962,-86"/>
<text text-anchor="middle" x="1182.8962" y="-64.3" font-family="Courier,monospace" font-size="14.00" fill="#000000">DependencyFailed</text>
</g>
<!-- Schedulable&#45;&gt;DependencyFailed -->
<g id="edge17" class="edge">
<title>Schedulable&#45;&gt;DependencyFailed</title>
<path fill="none" stroke="#000000" d="M847.5609,-206.7784C871.2097,-201.3254 899.1818,-194.1781 923.8962,-186 1002.9459,-159.8421 1090.1494,-116.9926 1140.5206,-90.76"/>
<polygon fill="#000000" stroke="#000000" points="1142.2531,-93.8036 1149.4871,-86.0629 1139.0048,-87.6029 1142.2531,-93.8036"/>
</g>
<!-- Schedulable&#45;&gt;CancelComplete -->
<g id="edge18" class="edge">
<title>Schedulable&#45;&gt;CancelComplete</title>
<path fill="none" stroke="#000000" d="M785.9105,-199.9412C775.0255,-174.7968 755.4517,-127.6327 742.8962,-86 739.0085,-73.1089 735.6645,-58.5638 733.1268,-46.2439"/>
<polygon fill="#000000" stroke="#000000" points="736.4909,-45.2148 731.111,-36.0876 729.6249,-46.5776 736.4909,-45.2148"/>
</g>
<!-- Eligible&#45;&gt;Dispatched -->
<g id="edge19" class="edge">
<title>Eligible&#45;&gt;Dispatched</title>
<path fill="none" stroke="#000000" d="M867.3835,-149.9489C867.3052,-148.83 867.2463,-147.6909 867.2068,-146.5416"/>
<polygon fill="#000000" stroke="#000000" points="870.7119,-146.2478 867.3737,-136.1926 863.7128,-146.1348 870.7119,-146.2478"/>
</g>
<!-- Eligible&#45;&gt;DependencyFailed -->
<g id="edge21" class="edge">
<title>Eligible&#45;&gt;DependencyFailed</title>
<path fill="none" stroke="#000000" d="M915.5693,-154.5136C967.4055,-137.7381 1056.4988,-108.9053 1117.4751,-89.1719"/>
<polygon fill="#000000" stroke="#000000" points="1118.5734,-92.4952 1127.0099,-86.0862 1116.4181,-85.8353 1118.5734,-92.4952"/>
</g>
<!-- Eligible&#45;&gt;CancelComplete -->
<g id="edge20" class="edge">
<title>Eligible&#45;&gt;CancelComplete</title>
<path fill="none" stroke="#000000" d="M835.8184,-149.922C828.5756,-145.7814 821.2742,-141.0848 814.8962,-136 783.3459,-110.8469 757.5081,-71.5951 742.4069,-45.3522"/>
<polygon fill="#000000" stroke="#000000" points="745.2853,-43.3295 737.3384,-36.3225 739.1811,-46.7559 745.2853,-43.3295"/>
</g>
<!-- CancelPending&#45;&gt;CancelComplete -->
<g id="edge26" class="edge">
<title>CancelPending&#45;&gt;CancelComplete</title>
<path fill="none" stroke="#000000" d="M965.6453,-51.8079C962.6938,-51.1694 959.7663,-50.5626 956.8962,-50 906.4617,-40.1139 849.198,-32.1126 804.5498,-26.5835"/>
<polygon fill="#000000" stroke="#000000" points="804.706,-23.0766 794.355,-25.3367 803.8562,-30.0248 804.706,-23.0766"/>
</g>
</g>
</svg>
