<svg>
  <defs>

    <!-- Our icons -->
    <g id="icon-caret-right">
      <path d="M6.37 4.98C7.27 3.66 8.74 3.66 9.65 4.98L18.37 17.62C19.27 18.94 18.72 20.01 17.11 20.01L-1.1 20.01C-2.69 20.01-3.26 18.95-2.35 17.62L6.37 4.98Z" transform="translate(8.009400, 11.999911) rotate(90.000000) translate(-8.009400, -11.999911) "/>
    </g>
    <g id="icon-windows">
      <path d="M0 3.26L9.39 1.98 9.39 11.04 0.01 11.09 0 3.26 0 3.26ZM9.39 12.09L9.39 21.15 0.01 19.86 0.01 12.02 9.39 12.09 9.39 12.09ZM10.52 1.82L22.97 0 22.97 10.93 10.52 11.03 10.52 1.82 10.52 1.82ZM22.98 12.17L22.97 23.05 10.52 21.29 10.51 12.15 22.98 12.17Z"/>
    </g>
    <g id="icon-azure">
      <g>
        <polyline points="5.48 19.3 24 19.3 14.03 2.01 10.99 10.36 16.82 17.3 5.48 19.3"></polyline>
        <polyline points="13.231 0.7 6.1 6.68 0 17.25 5.5 17.25 5.5 17.269 13.231 0.7"></polyline>
      </g>
    </g>
    <g id="icon-linux">
      <path d="M19.34 19.38C18.68 19.1 18.4 18.74 18.42 18.19 18.45 17.55 18.1 17.09 17.93 16.9 18.03 16.51 18.33 15.14 17.93 13.95 17.5 12.67 16.18 10.73 14.83 8.82 14.27 8.03 14.25 7.18 14.22 6.19 14.19 5.25 14.15 4.18 13.64 2.99 13.07 1.7 11.94 0.96 10.53 0.96 9.7 0.96 8.84 1.22 8.18 1.69 6.82 2.64 7 4.7 7.12 6.07 7.13 6.26 7.15 6.44 7.16 6.59 7.24 7.93 7.17 8.63 7.07 8.85 7.01 8.99 6.71 9.39 6.4 9.81 6.07 10.25 5.7 10.74 5.39 11.2 5.03 11.76 4.74 12.61 4.45 13.43 4.25 14.03 4.05 14.6 3.86 14.94 3.5 15.59 3.59 16.2 3.66 16.48 3.53 16.58 3.33 16.77 3.16 17.12 2.96 17.56 2.55 17.79 1.7 17.96 1.31 18.04 1.04 18.21 0.9 18.45 0.7 18.81 0.81 19.27 0.91 19.58 1.06 20.03 0.97 20.32 0.8 20.84 0.76 20.96 0.71 21.1 0.67 21.25 0.6 21.49 0.62 21.7 0.74 21.89 1.06 22.39 2 22.57 2.97 22.68 3.54 22.75 4.17 22.98 4.78 23.21 5.38 23.43 6 23.66 6.56 23.73 6.64 23.74 6.73 23.75 6.81 23.75 7.66 23.75 8.04 23.18 8.16 22.94 8.47 22.88 9.52 22.68 10.6 22.65 11.68 22.62 12.73 22.84 13.02 22.9 13.12 23.08 13.36 23.5 13.75 23.71 13.97 23.83 14.27 23.9 14.57 23.9 14.57 23.9 14.57 23.9 14.57 23.9 14.9 23.9 15.52 23.82 16.02 23.29 16.51 22.76 17.74 22.09 18.64 21.6 18.84 21.49 19.02 21.38 19.19 21.29 19.69 21.01 19.97 20.6 19.94 20.18 19.92 19.83 19.69 19.52 19.34 19.38ZM8.19 19.27C8.12 18.83 7.56 18.38 6.9 17.87 6.36 17.45 5.75 16.97 5.58 16.56 5.23 15.73 5.51 14.27 5.98 13.51 6.22 13.13 6.41 12.56 6.6 12.01 6.8 11.41 7.01 10.79 7.24 10.52 7.61 10.1 7.95 9.27 8.01 8.62 8.36 8.96 8.89 9.38 9.39 9.38 9.46 9.38 9.54 9.37 9.61 9.35 9.95 9.25 10.44 8.96 10.92 8.68 11.34 8.44 11.85 8.14 12.04 8.11 12.37 8.59 14.29 12.9 14.49 14.28 14.64 15.37 14.48 16.28 14.4 16.63 14.33 16.62 14.25 16.62 14.17 16.62 13.63 16.62 13.49 16.91 13.46 17.09 13.36 17.55 13.35 19.02 13.35 19.35 13.16 19.59 12.18 20.77 10.78 20.98 10.21 21.06 9.67 21.1 9.19 21.1 8.78 21.1 8.52 21.07 8.41 21.06L7.7 20.24C7.98 20.1 8.26 19.8 8.19 19.27ZM9.08 5.78C9.06 5.79 9.04 5.8 9.02 5.81 9.01 5.77 9.01 5.72 9 5.67 8.92 5.22 8.63 4.89 8.3 4.89 8.28 4.89 8.25 4.89 8.23 4.9 8.03 4.93 7.88 5.08 7.8 5.29 7.87 4.83 8.13 4.49 8.43 4.49 8.79 4.49 9.1 4.98 9.1 5.56 9.1 5.63 9.09 5.71 9.08 5.78ZM11.88 6.13C11.91 6.02 11.93 5.91 11.93 5.79 11.93 5.26 11.6 4.85 11.18 4.85 10.76 4.85 10.43 5.27 10.43 5.79 10.43 5.82 10.43 5.86 10.43 5.9 10.41 5.89 10.39 5.88 10.37 5.87 10.32 5.73 10.3 5.57 10.3 5.42 10.3 4.79 10.7 4.27 11.18 4.27 11.67 4.27 12.07 4.79 12.07 5.42 12.07 5.68 12 5.93 11.88 6.13ZM11.52 7.36C11.51 7.39 11.49 7.4 11.33 7.49 11.24 7.54 11.14 7.59 11.01 7.67L10.92 7.72C10.57 7.94 9.75 8.44 9.53 8.47 9.38 8.49 9.29 8.43 9.08 8.29 9.03 8.26 8.98 8.22 8.92 8.19 8.55 7.93 8.3 7.66 8.28 7.55 8.4 7.45 8.7 7.21 8.86 7.07 9.18 6.77 9.5 6.56 9.66 6.56 9.67 6.56 9.67 6.57 9.68 6.57 9.87 6.6 10.33 6.79 10.66 6.92 10.82 6.98 10.95 7.04 11.05 7.07 11.34 7.18 11.5 7.31 11.52 7.36ZM14.18 21.37C14.35 20.61 14.54 19.57 14.51 18.95 14.5 18.81 14.49 18.66 14.48 18.51 14.46 18.24 14.42 17.83 14.46 17.71 14.46 17.71 14.47 17.7 14.48 17.7 14.48 18.05 14.56 18.75 15.11 19 15.27 19.07 15.46 19.11 15.67 19.11 16.22 19.11 16.83 18.83 17.09 18.58 17.23 18.43 17.36 18.24 17.45 18.1 17.46 18.16 17.48 18.23 17.47 18.32 17.44 18.84 17.69 19.53 18.16 19.78L18.23 19.82C18.39 19.91 18.84 20.15 18.85 20.26 18.85 20.26 18.84 20.27 18.82 20.3 18.71 20.4 18.31 20.6 17.93 20.8 17.26 21.15 16.49 21.55 16.15 21.91 15.66 22.43 15.12 22.78 14.79 22.78 14.75 22.78 14.71 22.77 14.68 22.76 14.32 22.65 14.02 22.12 14.18 21.37ZM1.94 19.42C1.9 19.25 1.87 19.11 1.9 18.98 1.93 18.88 2.41 18.77 2.61 18.73 2.9 18.66 3.2 18.6 3.39 18.48 3.65 18.32 3.8 18.02 3.92 17.76 4.01 17.56 4.11 17.37 4.22 17.3 4.23 17.3 4.23 17.3 4.25 17.3 4.46 17.3 4.9 17.74 5.16 18.14 5.22 18.24 5.34 18.45 5.48 18.68 5.89 19.38 6.45 20.34 6.75 20.66 7.01 20.95 7.44 21.5 7.34 21.98 7.26 22.35 6.85 22.65 6.75 22.71 6.72 22.72 6.67 22.72 6.62 22.72 6.06 22.72 4.94 22.25 4.34 21.99L4.25 21.95C3.92 21.81 3.37 21.72 2.84 21.64 2.42 21.57 1.84 21.47 1.75 21.39 1.67 21.3 1.76 21.01 1.84 20.76 1.9 20.58 1.96 20.39 1.99 20.19 2.03 19.88 1.98 19.63 1.94 19.42Z"/>
    </g>
    <g id="icon-linux2">
      <path d="M9.76053803,22.5346731 C9.25118221,22.6030438 8.85110284,22.6814313 8.67996769,22.7170079 C8.55502099,22.959252 8.16095829,23.5488913 7.2887723,23.5488913 C7.20494053,23.5488913 7.11798128,23.543218 7.03018296,23.531949 C6.4525142,23.4601384 5.81702517,23.22349 5.20243687,22.994691 C4.57518609,22.7610735 3.92665318,22.5196066 3.3341098,22.4479514 C2.34170647,22.328578 1.3776793,22.1471087 1.04731044,21.632544 C0.922287447,21.4377073 0.895894553,21.2143485 0.969047113,20.9686849 C1.01550166,20.8130176 1.06134596,20.6718834 1.10177438,20.5472253 C1.27721848,20.0070917 1.37371273,19.7095908 1.21886425,19.239558 C1.11405547,18.91983 0.999177729,18.4519733 1.21009204,18.0796308 C1.35502412,17.8237863 1.6322258,17.6515653 2.03422162,17.5677863 C2.90900114,17.3964202 3.32968557,17.1541761 3.53701472,16.7034171 C3.70856854,16.3339502 3.91177857,16.1379478 4.05243896,16.0383922 C3.97524356,15.7478081 3.88279215,15.1190771 4.25435223,14.4448039 C4.45039194,14.0942999 4.65177125,13.5077693 4.86497397,12.88681 C5.15636373,12.0382174 5.45766989,11.160714 5.83090814,10.5866181 C6.14373259,10.1095131 6.52536164,9.59751305 6.86198546,9.14582149 C7.1874724,8.70905161 7.49503353,8.29652945 7.55750689,8.15158713 C7.65407742,7.92978264 7.7279165,7.20001943 7.64675453,5.81541226 C7.63760093,5.65927869 7.62188724,5.47641044 7.60518191,5.28281724 C7.4832864,3.86906618 7.2990701,1.73254645 8.69270647,0.752612022 C9.373277,0.274341226 10.2576678,0 11.1192509,0 C12.56758,0 13.7305455,0.766212508 14.3101213,2.10240194 C14.8431662,3.32955434 14.876882,4.43344748 14.9067838,5.40731998 C14.9305652,6.18562213 14.9519088,6.8830036 15.2135909,7.52989258 C13.1818108,7.69136318 11.6245676,8.51222617 10.0413957,10.1193855 L8.99662509,11.179986 L12.779052,14.9624129 L13.838859,13.961484 C14.5800625,13.2614585 15.0876653,12.9731161 15.5616095,12.9731161 C16.1899172,12.9731161 16.2981666,13.0722176 16.2981666,13.5376304 C16.2981666,14.550664 14.7832068,16.1865361 10.2953061,19.9593317 L9.76053803,20.4088895 L9.76053803,22.5346731 Z M9.6243909,4.98547177 C9.63552778,4.90495689 9.64094367,4.82957134 9.64094367,4.75379721 C9.64094367,4.15257802 9.32842434,3.64461931 8.95846613,3.64461931 C8.64342956,3.64461931 8.37789874,3.99815422 8.30230521,4.47564784 C8.38850166,4.25804007 8.5457911,4.10454888 8.74633133,4.0705088 C8.77386843,4.06623437 8.79896456,4.06429144 8.82390813,4.06429144 C9.16098964,4.06429144 9.46321117,4.40135033 9.54238985,4.86570978 C9.5502467,4.91661445 9.55535746,4.96736369 9.55756958,5.01741348 C9.57946196,5.00606679 9.60173572,4.99541955 9.6243909,4.98547177 Z M12.4990806,5.34351427 C12.6260868,5.13787492 12.6995445,4.87907711 12.6995445,4.60792228 C12.6995445,3.95610929 12.2906072,3.42576806 11.787998,3.42576806 C11.2853125,3.42576806 10.8764515,3.95610929 10.8764515,4.60792228 C10.8764515,4.76809715 10.9010899,4.92500789 10.9498329,5.07539041 C10.9711913,5.08362842 10.9930837,5.09217729 11.01551,5.10095932 C11.0121537,5.0644323 11.0103993,5.02782757 11.0103993,4.99130055 C11.0103993,4.45520826 11.3549562,4.01913783 11.778463,4.01913783 C12.2118099,4.01913783 12.5512561,4.44619308 12.5512561,4.99130055 C12.5512561,5.11471524 12.5329489,5.23362234 12.4990806,5.34351427 Z M12.1284358,6.61216758 C12.1091369,6.56102975 11.9500168,6.42440316 11.6448204,6.31761991 C11.5479448,6.28218094 11.4102593,6.22622465 11.2508339,6.16140862 C10.9058956,6.02120704 10.4336459,5.82916818 10.2421829,5.79473953 C10.2340973,5.79318519 10.2263167,5.79256345 10.2176971,5.79256345 C10.0547629,5.79256345 9.72553823,6.00084517 9.39837313,6.31078081 C9.23719341,6.45898725 8.92238567,6.7093139 8.7953794,6.80933576 C8.8236793,6.92148148 9.07425924,7.20833515 9.4638214,7.46876503 C9.51912444,7.50490346 9.57099487,7.54080874 9.61973782,7.57461566 C9.83583917,7.72422101 9.93195202,7.78561749 10.0873345,7.76432301 C10.3160983,7.73378021 11.1587639,7.21315361 11.5186532,6.99088282 L11.6082059,6.93562599 C11.74223,6.85246873 11.8493272,6.79565756 11.9353711,6.75003764 C12.1057807,6.65973042 12.1211892,6.64511961 12.1284358,6.61216758 Z M2.27580051,19.0777511 C2.32019549,19.2896078 2.37557481,19.5533018 2.32851001,19.8772265 C2.2953282,20.0803012 2.23476185,20.2742829 2.17610249,20.4618919 C2.09463541,20.7229435 2.00226028,21.0188124 2.08189664,21.1098191 C2.18014534,21.1981056 2.77284126,21.295796 3.20565422,21.367218 C3.7496072,21.4569035 4.31209622,21.5496199 4.65665317,21.696816 L4.74796039,21.7359077 C5.36498964,22.0001457 6.51346196,22.4919393 7.09364794,22.4919393 C7.14651001,22.4919393 7.19143896,22.4876648 7.22774826,22.4792714 C7.3277514,22.4106472 7.75171587,22.1004007 7.83135223,21.7188877 C7.94012757,21.2271718 7.49793217,20.6538531 7.22477334,20.3556527 C6.92163645,20.0239563 6.34122162,19.0342295 5.91733342,18.3116163 C5.7756051,18.0698385 5.65309936,17.8610128 5.58696457,17.7567942 C5.32623938,17.3434171 4.87374617,16.8815446 4.6581025,16.8815446 C4.63918505,16.8815446 4.62926864,16.8860522 4.62278483,16.8899381 C4.50767825,16.956697 4.41095516,17.1600826 4.31728327,17.3567845 C4.18791231,17.6287942 4.04122579,17.9370978 3.77035537,18.1042672 C3.57004398,18.2281481 3.26370333,18.2958397 2.96750793,18.3613552 C2.75682245,18.4079077 2.26351943,18.5170225 2.24033029,18.6188318 C2.20836895,18.7562356 2.23811817,18.8980692 2.27580051,19.0777511 Z M11.2605376,22.9139661 L11.2605376,21.1075161 C15.1745126,17.8171964 17.7981662,15.4946179 17.7981662,13.5376304 C17.7981662,12.2042982 16.9809626,11.4731161 15.561609,11.4731161 C14.4648358,11.4731161 13.5831162,12.1397821 12.8089233,12.8709643 L11.1100001,11.1720411 C12.5293537,9.73118214 13.8841912,9 15.9917162,9 C18.8519287,9 20.8089162,10.7204286 20.8089162,13.3440821 C20.8089162,15.6451554 18.4433269,18.0967661 15.7981679,20.4193446 C16.5723608,20.3333232 17.5616072,20.2473018 18.271284,20.2473018 L21.5185929,20.2473018 L21.5185929,22.9139661 L11.2605376,22.9139661 Z" id="XMLID_92_"></path>
    </g>
    <g id="icon-mac">
      <g fill="#5C6670" transform="translate(1.000000, 2.000000)">
        <path d="M14,5.24655095 L14,6.7531905 C14,7.44155604 14.4476411,7.99958656 14.9998342,7.99958656 C15.2545081,8.00834232 15.5173573,7.87770979 15.7096292,7.63802298 C15.9019012,7.39833614 16.006692,7.07066763 15.9994398,6.73181986 L15.9996683,5.24655095 C16.006692,4.92907383 15.9019012,4.60140532 15.7096292,4.3617185 C15.5193796,4.12455284 15.2600298,3.99415935 14.9912655,4.00020097 C14.4430111,4.00594515 14,4.56175458 14,5.24655095 Z" id="Path"></path>
        <path d="M7,6.75344905 L7,5.2468095 C7,4.55844396 6.552359,4.00041344 6.00016583,4.00041344 C5.74549198,3.99165768 5.4826428,4.12229021 5.29037078,4.36197704 C5.09809878,4.60166386 4.99330795,4.92933237 5.00056031,5.26818014 L5.00033166,6.75344905 C4.99330795,7.07092617 5.09809878,7.39859468 5.29037078,7.63828152 C5.48062037,7.87544716 5.73997016,8.00584065 6.00873456,7.99979903 C6.55698898,7.99405485 7,7.43824542 7,6.75344905 Z" id="Path"></path>
        <path d="M21.9743036,18.2244942 C21.9807932,18.3423159 21.9807932,18.4603863 21.9624745,18.6722331 C21.93189,18.8269275 21.8800095,18.9769896 21.8069616,19.1208845 C21.7247047,19.2813489 21.6134903,19.4264216 21.4979714,19.5309295 C21.3747147,19.6519047 21.2323931,19.7533281 21.0501893,19.8438636 C20.9096662,19.9074258 20.7619101,19.9549123 20.6099364,19.985354 L20.4621415,20 L1.51104323,20 L1.35101341,19.9827971 C1.20786106,19.9516324 1.06829033,19.9067766 0.896905981,19.8314424 C0.740791553,19.7533281 0.598469904,19.6519047 0.480117622,19.5356971 C0.349911072,19.4103274 0.243993511,19.2635288 0.209781928,19.178642 C0.0982659754,19.0045805 0.0302673616,18.8078972 0.0122453154,18.6147986 C-0.00333363647,18.4728967 -0.00333363647,18.3298055 0.00820876064,18.2616435 L0.0119536118,1.84718068 C-0.00321079891,1.70373241 -0.00321079891,1.55916938 0.0244099202,1.33964469 C0.06714218,1.14782429 0.150666373,0.966631577 0.21783809,0.887750458 C0.290392404,0.756540011 0.378769072,0.634052618 0.542336029,0.463823453 C0.657689183,0.365130976 0.78473064,0.279922354 0.837596055,0.259978715 C1.00263338,0.145205091 1.19056281,0.0646749962 1.46842001,0.0114647766 C1.61720166,-0.00315603438 1.76713952,-0.00315603438 1.84224756,0.00785416738 C14.2083793,0.000435076281 20.4517486,0.00313722858 20.5723557,0.0159606243 C20.7964297,0.0491157051 21.0089055,0.133884994 21.1041158,0.209968899 C21.2402046,0.279922354 21.3672461,0.365130976 21.5309381,0.50921991 C21.6368649,0.618390037 21.7293343,0.739010974 21.8393041,0.9307568 C21.8993367,1.05987225 21.9458603,1.19443978 21.995072,1.45086094 C22.001474,1.57117513 22.001474,1.69172668 21.9960263,1.77614804 L21.9743036,18.2244942 Z M11.8242166,18.1596454 C11.711778,17.4950196 11.6041333,16.7387798 11.5268923,16.0454409 C11.3238169,16.0554488 11.1210384,16.0597227 10.9193164,16.0582502 C8.77388001,16.0582502 7.04249153,15.551262 5.6991398,14.6988889 C4.89958082,14.191559 4.43985487,13.7234659 4.11400225,13.2746491 L4.01864673,13.0906542 C3.94537607,12.8746216 3.94537607,12.6417032 4.00413761,12.4743381 C4.06602614,12.2344003 4.21538051,12.0239381 4.42491562,11.8814002 L4.6621433,11.7755154 C4.80930368,11.7388809 4.96248813,11.7327312 5.11167097,11.7570665 C5.42933517,11.7835292 5.71714654,11.9460135 5.86904789,12.171838 C6.16048546,12.5446133 6.52319019,12.8601988 6.93278379,13.0987957 C8.14868089,13.7946778 9.54529701,14.1415646 10.9877813,14.0983893 C11.1278966,14.0995725 11.2679816,14.0972643 11.4078961,14.0914723 C11.377279,13.6164938 11.3660219,13.1060144 11.3631281,12.3658164 L9.86292001,12.3653661 C9.43177727,12.3827553 9.01232112,12.2277277 8.6635678,11.8959351 C8.38266406,11.5848722 8.24817688,11.1754 8.28831719,10.8371831 C8.28831719,10.7723189 8.28831719,10.7723189 8.28903899,10.656279 C8.36766742,8.95676903 8.55034491,7.26322059 8.83397053,5.59790399 C9.02964582,4.29029094 9.37667748,3.00909978 9.86781208,1.77813885 L1.84431238,1.77813885 C1.84795826,12.6992764 1.85072003,18.1596454 1.8525977,18.1596454 L11.8242166,18.1596454 Z M20.1599226,17.9922074 L20.1614202,1.75818062 L12.1357868,1.75818062 C11.5381284,3.09995003 11.1373466,4.51828661 10.9428503,5.99095444 C10.693163,7.45861487 10.5237208,8.93782957 10.4358436,10.3964606 L11.8705199,10.3973057 C12.3146785,10.3722672 12.7477582,10.5369611 13.0545976,10.8475932 C13.361437,11.1582253 13.5109378,11.5833129 13.4675146,11.9348856 C13.4675146,12.5451179 13.4821018,13.1643353 13.5111991,13.7892281 C14.0496007,13.6188016 14.5732158,13.3772166 15.0867741,13.0595313 C15.5167949,12.8442269 15.9013047,12.5533493 16.1684623,12.2664252 C16.3454155,12.018326 16.6277178,11.8617244 16.9355402,11.8366436 C17.0842258,11.8126078 17.23685,11.8188427 17.3834923,11.8553483 L17.6087036,11.9532321 C18.0744582,12.2567336 18.2086694,12.8606012 17.8557681,13.3981995 C16.784191,14.6522212 15.3043918,15.5089 13.6682939,15.8370966 C13.7562746,16.6384256 13.872993,17.4365797 14.01824,18.2301254 L20.1599226,18.234291 L20.1599226,17.9922074 Z" id="Shape"></path>
      </g>
    </g>
    <g id="icon-gitlab">
      <polygon points="11.9912395 22.0637307 16.3902092 8.52512594 7.59259327 8.52512594 11.9913689 22.0637307"></polygon>
      <polygon fill-opacity="0.66" points="11.9912395 22.0637307 7.59226988 8.52512594 1.42712812 8.52512594 11.9913689 22.0636013"></polygon>
      <path fill-opacity="0.33" d="M1.4271928,8.52512594 L0.0902909976,12.6393167 C-0.0315630421,13.0146453 0.101933103,13.4258057 0.421250191,13.6576129 L11.9912395,22.0637307 L1.4271928,8.52506126 L1.4271928,8.52512594 Z"></path>
      <path d="M1.4271928,8.52512594 L7.59233456,8.52512594 L4.94272066,0.370930423 C4.80644334,-0.0486381305 4.21288998,-0.0486381305 4.07667735,0.370930423 L1.42712812,8.52512594 L1.4271928,8.52512594 Z" ></path>
      <polygon fill-opacity="0.66" points="11.9912395 22.0637307 16.3902092 8.52512594 22.5553509 8.52512594 11.9913689 22.0636013"></polygon>
      <path fill-opacity="0.33" d="M22.5552862,8.52512594 L23.892188,12.6393167 C24.0140421,13.0146453 23.8805459,13.4258057 23.5612288,13.6576129 L11.9912395,22.0637307 L22.5552862,8.52506126 L22.5552862,8.52512594 Z"></path>
      <path d="M22.5552862,8.52512594 L16.3901445,8.52512594 L19.0397584,0.370930423 C19.1761004,-0.0486381305 19.7696537,-0.0486381305 19.905931,0.370930423 L22.5553509,8.52512594 L22.5552862,8.52512594 Z"></path>
    </g>
    <g id="icon-github">
      <path d="M12 0C5.37 0 0 5.37 0 12 0 17.31 3.44 21.8 8.21 23.39 8.81 23.49 9.03 23.13 9.03 22.82 9.03 22.53 9.02 21.59 9.02 20.58 6 21.14 5.22 19.85 4.98 19.17 4.85 18.83 4.26 17.76 3.75 17.48 3.33 17.25 2.73 16.7 3.74 16.68 4.68 16.67 5.36 17.55 5.58 17.91 6.66 19.73 8.39 19.22 9.07 18.9 9.18 18.12 9.49 17.6 9.84 17.3 7.17 17 4.38 15.96 4.38 11.37 4.38 10.07 4.85 8.99 5.61 8.15 5.49 7.85 5.07 6.62 5.73 4.97 5.73 4.97 6.74 4.65 9.03 6.2 9.99 5.93 11.01 5.79 12.03 5.79 13.05 5.79 14.07 5.93 15.03 6.2 17.33 4.64 18.33 4.97 18.33 4.97 18.99 6.62 18.57 7.85 18.45 8.15 19.22 8.99 19.68 10.05 19.68 11.37 19.68 15.98 16.88 17 14.21 17.3 14.64 17.67 15.02 18.39 15.02 19.52 15.02 21.12 15 22.41 15 22.82 15 23.13 15.23 23.51 15.83 23.39 20.57 21.8 24 17.3 24 12 24 5.37 18.63 0 12 0Z"/>
    </g>
    <g id="icon-bitbucket">
      <defs>
        <linearGradient x1="97.526%" y1="25.488%" x2="46.927%" y2="78.776%" id="a-34c51d60-7b31-4c9b-94bf-4e0ad8932849">
          <stop stop-color="inherit" stop-opacity=".4" offset="0%"></stop><stop stop-color="inherit" offset="100%"></stop>
        </linearGradient>
      </defs>
      <path d="M20.063 9.297h-5.279l-.886 5.16h-3.656l-4.317 5.116a.763.763 0 0 0 .492.186h11.458a.562.562 0 0 0 .563-.472l1.625-9.99z" fill="url(#a-34c51d60-7b31-4c9b-94bf-4e0ad8932849)"/>
      <path d="M3.844 4a.563.563 0 0 0-.563.651L5.67 19.12a.763.763 0 0 0 .748.637l4.433-5.3h-.622l-.976-5.16h10.811l.76-4.64A.56.56 0 0 0 20.269 4H3.844z" fill="currentColor"/>
    </g>
    <g id="icon-azure-ad">
      <g transform="translate(0.507907, 0.037953)">
        <path d="M22.9395349,13.7302326 L11.7209302,0.279069767 L0.446511628,13.6744186 L11.6651163,22.827907 L22.9395349,13.7302326 Z M10.2697674,18.3627907 L10.2697674,12.6697674 C9.20930233,12.1116279 8.53953488,10.9953488 8.53953488,9.65581395 C8.53953488,7.81395349 9.93488372,6.30697674 11.6651163,6.30697674 C13.3953488,6.30697674 14.7906977,7.81395349 14.7906977,9.65581395 C14.7906977,10.9395349 14.0651163,12.1116279 13.0604651,12.6139535 L13.0604651,13.7302326 L13.0046512,13.7860465 L11.944186,14.9023256 L13.0604651,16.0744186 L13.0604651,16.1302326 L12.055814,17.2465116 L13.0046512,18.3069767 L11.6093023,19.7581395 L10.2697674,18.3627907 Z"></path>
      </g>
      <g transform="translate(10.672019, 7.565302)">
        <path d="M2.67906977,1.22790698 C2.67906977,0.669767442 2.00930233,0.223255814 1.50697674,0.223255814 C0.948837209,0.223255814 0.390697674,0.613953488 0.390697674,1.17209302 C0.390697674,1.73023256 0.948837209,2.34418605 1.50697674,2.34418605 C2.00930233,2.4 2.67906977,1.84186047 2.67906977,1.22790698 Z"></path>
      </g>
    </g>
    <g id="icon-chef-automate">
      <path d="M18,1.60851064 C17.0978723,1.0893617 16.1276596,0.680851064 15.0978723,0.408510638 C14.1021277,0.144680851 13.0638298,0 11.9914894,0 C10.9191489,0 9.87234043,0.144680851 8.87659574,0.408510638 C7.84680851,0.680851064 6.87659574,1.0893617 5.97446809,1.60851064 C5.06382979,2.13617021 4.22978723,2.78297872 3.4893617,3.52340426 L3.49787234,3.53191489 C2.76595745,4.26382979 2.12765957,5.09787234 1.60851064,6 C1.0893617,6.89361702 0.680851064,7.87234043 0.408510638,8.89361702 L2.38297872,9.4212766 C2.61276596,8.57021277 2.94468085,7.76170213 3.3787234,7.0212766 C3.81276596,6.26382979 4.34893617,5.57446809 4.96170213,4.96170213 L4.95319149,4.95319149 C5.56595745,4.34893617 6.25531915,3.81276596 7.00425532,3.3787234 C7.75319149,2.94468085 8.56170213,2.61276596 9.41276596,2.38297872 C10.2382979,2.16170213 11.0978723,2.04255319 11.9914894,2.04255319 C12.8851064,2.04255319 13.7531915,2.16170213 14.5702128,2.38297872 C15.4212766,2.61276596 16.2297872,2.94468085 16.9787234,3.3787234 C17.7361702,3.81276596 18.4255319,4.34893617 19.0468085,4.96170213 L20.493617,3.51489362 C19.7446809,2.78297872 18.9106383,2.13617021 18,1.60851064 Z"></path>
      <path d="M2.04255319,12 L0,12 C0,13.0723404 0.144680851,14.1191489 0.408510638,15.106383 L2.38297872,14.5787234 C2.16170213,13.7531915 2.04255319,12.893617 2.04255319,12 Z"></path>
      <path d="M23.5914894,8.89361702 C23.3191489,7.87234043 22.9106383,6.89361702 22.3914894,6 L20.6212766,7.0212766 C21.0553191,7.77021277 21.387234,8.57021277 21.6170213,9.4212766 C21.7276596,9.84680851 21.812766,10.2808511 21.8723404,10.7234043 L23.9319149,10.7234043 C23.8638298,10.1021277 23.7531915,9.4893617 23.5914894,8.89361702 Z"></path>
      <path d="M21.6170213,14.5787234 C21.387234,15.4297872 21.0553191,16.2382979 20.6212766,16.9787234 C20.187234,17.7361702 19.6510638,18.4255319 19.0382979,19.0382979 C18.4255319,19.6510638 17.7361702,20.187234 16.9787234,20.6212766 C16.2297872,21.0553191 15.4297872,21.387234 14.5787234,21.6170213 C13.7531915,21.8382979 12.893617,21.9574468 12,21.9574468 C11.106383,21.9574468 10.2468085,21.8382979 9.4212766,21.6170213 C8.57021277,21.387234 7.76170213,21.0553191 7.0212766,20.6212766 C6.26382979,20.187234 5.57446809,19.6510638 4.96170213,19.0382979 C4.34893617,18.4255319 3.81276596,17.7361702 3.3787234,16.9787234 L1.60851064,18 C2.13617021,18.9106383 2.77446809,19.7446809 3.51489362,20.4851064 C4.25531915,21.2255319 5.0893617,21.8638298 6,22.3914894 C6.89361702,22.9106383 7.87234043,23.3191489 8.89361702,23.5914894 C9.88085106,23.8553191 10.9276596,24 12,24 C13.0723404,24 14.1191489,23.8553191 15.106383,23.5914894 C16.1276596,23.3191489 17.106383,22.9106383 18,22.3914894 C18.9106383,21.8638298 19.7446809,21.2255319 20.4851064,20.4851064 C21.2255319,19.7446809 21.8638298,18.9106383 22.3914894,18 C22.9106383,17.106383 23.3191489,16.1276596 23.5914894,15.106383 C23.7531915,14.5106383 23.8638298,13.8978723 23.9319149,13.2765957 L21.8723404,13.2765957 C21.8212766,13.7191489 21.7361702,14.1531915 21.6170213,14.5787234 Z"></path>
      <path d="M12,17.4468085 C8.99574468,17.4468085 6.55319149,15.0042553 6.55319149,12 C6.55319149,8.99574468 8.99574468,6.55319149 12,6.55319149 C14.5702128,6.55319149 16.7234043,8.33191489 17.293617,10.7234043 L19.3787234,10.7234043 C18.7744681,7.19148936 15.7021277,4.5106383 12,4.5106383 C7.86382979,4.5106383 4.5106383,7.86382979 4.5106383,12 C4.5106383,16.1361702 7.86382979,19.4893617 12,19.4893617 C15.7021277,19.4893617 18.7744681,16.8085106 19.3787234,13.2765957 L17.293617,13.2765957 C16.7234043,15.6680851 14.5702128,17.4468085 12,17.4468085 Z"></path>
    </g>
    <g id="icon-google">
      <path d="M5.9625,2 L2.5125,8.05208333 L4.275,11.1145833 L7.725,5.5 L20.025,5.5 L18,2 L5.9625,2 Z M16.4625,6.66666667 L20.025,12.390625 L13.95,23 L18,23 L24,12.5 L20.6625,6.66666667 L16.4625,6.66666667 Z M12,7.83333333 C9.3515628,7.83333333 7.2,9.9251305 7.2,12.5 C7.2,15.0748695 9.3515628,17.1666667 12,17.1666667 C14.6484372,17.1666667 16.8,15.0748695 16.8,12.5 C16.8,9.9251305 14.6484372,7.83333333 12,7.83333333 Z M1.8375,9.25520833 L0,12.5 L5.9625,23 L12.6,23 L14.5875,19.5 L7.6875,19.5 L1.8375,9.25520833 Z M12,10.1666667 C13.3218756,10.1666667 14.4,11.2148443 14.4,12.5 C14.4,13.7851568 13.3218756,14.8333333 12,14.8333333 C10.6781256,14.8333333 9.6,13.7851568 9.6,12.5 C9.6,11.2148443 10.6781256,10.1666667 12,10.1666667 Z"/>
    </g>
    <g id="icon-amazon">
      <g transform="translate(0.000000, 5.000000)">
        <path d="M20.1712971,7.57621885 C19.7566769,7.57621885 19.3419768,7.52836884 18.9432267,7.43266884 C18.5444768,7.33696883 18.233372,7.23329382 18.0261017,7.1136688 C17.8984218,7.04189379 17.8106969,6.96214379 17.7787968,6.89036878 C17.7469766,6.81859377 17.7309468,6.73884377 17.7309468,6.66714851 L17.7309468,6.26034372 C17.7309468,6.0928687 17.7947469,6.0131187 17.9143719,6.0131187 C17.9623017,6.0131187 18.0100719,6.02109369 18.0579219,6.0370437 C18.1058517,6.05299369 18.1775469,6.0848937 18.257297,6.11679371 C18.528447,6.23641872 18.8236017,6.33211872 19.1345471,6.39591873 C19.4535469,6.45971874 19.7645721,6.49161874 20.0835722,6.49161874 C20.5859972,6.49161874 20.976852,6.40389373 21.2479223,6.22852347 C21.5190723,6.05299369 21.6626223,5.79779367 21.6626223,5.47089838 C21.6626223,5.24751862 21.590927,5.0640936 21.4472972,4.91264833 C21.3037472,4.76104357 21.0326769,4.62546856 20.6418222,4.49786854 L19.485447,4.13899352 C18.9033518,3.95564824 18.472622,3.68441847 18.209447,3.32554342 C17.9463516,2.9746434 17.8106969,2.58386835 17.8106969,2.16916831 C17.8106969,1.83421828 17.8825517,1.53914325 18.0261017,1.28402298 C18.1695719,1.0287432 18.3610517,0.805522929 18.6003017,0.629993163 C18.8395517,0.446647894 19.1106221,0.310993131 19.429622,0.215293122 C19.748622,0.119593112 20.0835722,0.079718108 20.4345519,0.079718108 C20.6099222,0.079718108 20.7934269,0.0877728587 20.9687972,0.111618111 C21.1523019,0.135543113 21.3196973,0.167522867 21.4871723,0.199343119 C21.6466722,0.239218124 21.7981973,0.279093127 21.9417473,0.327022883 C22.0852973,0.374793137 22.1969474,0.422643142 22.2766973,0.470493147 C22.388427,0.534293152 22.4681771,0.598093159 22.5159474,0.669868167 C22.5637974,0.733668172 22.5878021,0.821393181 22.5878021,0.933043192 L22.5878021,1.30786823 C22.5878021,1.47534325 22.5239223,1.563148 22.4042973,1.563148 C22.3404974,1.563148 22.2368223,1.53116824 22.1012474,1.46736825 C21.6466722,1.26001822 21.136352,1.15634321 20.5700472,1.15634321 C20.1155519,1.15634321 19.7566769,1.22811822 19.509372,1.37964324 C19.2622268,1.53116824 19.1345471,1.76252302 19.1345471,2.08941831 C19.1345471,2.31271833 19.214297,2.50411835 19.3737971,2.65564336 C19.533297,2.80716838 19.8283721,2.95877314 20.2510472,3.0942684 L21.3834972,3.45314345 C21.9576972,3.63664821 22.3724771,3.89176848 22.6196223,4.21874352 C22.8669272,4.54571854 22.9865522,4.92054358 22.9865522,5.33524363 C22.9865522,5.67816865 22.9146974,5.98927344 22.7791224,6.26034372 C22.6355724,6.53149374 22.4441723,6.77074377 22.1969474,6.96214379 C21.949802,7.16151881 21.6547271,7.30514858 21.311802,7.40874384 C20.9529269,7.52047359 20.5781019,7.57621885 20.1712971,7.57621885 Z M9.92342108,7.36097358 C9.77987107,7.36097358 9.68417106,7.33696883 9.62037105,7.28114382 C9.55657104,7.23329382 9.50074603,7.12164381 9.45297579,6.97011879 L7.57885061,0.805522929 C7.53092085,0.646022915 7.50699585,0.542268153 7.50699585,0.486522899 C7.50699585,0.358843136 7.57079585,0.287147879 7.6984756,0.287147879 L8.47994593,0.287147879 C8.63147096,0.287147879 8.73522571,0.310993131 8.79097096,0.366897887 C8.85485073,0.414668141 8.90262098,0.526397903 8.95047099,0.677843168 L10.2903509,5.95729369 L11.5343712,0.677843168 C11.5742462,0.518343152 11.6220963,0.414668141 11.685976,0.366897887 C11.7496963,0.318968132 11.8613463,0.287147879 12.004976,0.287147879 L12.6429761,0.287147879 C12.7944214,0.287147879 12.8981761,0.310993131 12.9619761,0.366897887 C13.0256964,0.414668141 13.0816011,0.526397903 13.1134214,0.677843168 L14.3735513,6.02109369 L15.7532264,0.677843168 C15.8009967,0.518343152 15.8568216,0.414668141 15.9127265,0.366897887 C15.9764468,0.318968132 16.0801216,0.287147879 16.2236716,0.287147879 L16.9654266,0.287147879 C17.0929469,0.287147879 17.1648015,0.350868135 17.1648015,0.486522899 C17.1648015,0.526397903 17.1567468,0.566272907 17.1488515,0.614043161 C17.1407969,0.661893165 17.1249266,0.725772923 17.0929469,0.813418181 L15.1710513,6.9780938 C15.1231217,7.13759381 15.0672966,7.24126881 15.0034966,7.28911883 C14.9396966,7.33696883 14.8361013,7.36886883 14.7004465,7.36886883 L14.0146762,7.36886883 C13.8630715,7.36886883 13.7594762,7.34502357 13.6956762,7.28911883 C13.6317964,7.23329382 13.5760512,7.1296188 13.5440714,6.97011879 L12.3079463,1.82624328 L11.0797962,6.96214379 C11.0399212,7.12164381 10.9920712,7.22539857 10.9283509,7.28114382 C10.8644712,7.33696883 10.7528212,7.36097358 10.6093509,7.36097358 L9.92342108,7.36097358 Z M3.51949545,6.49959375 C3.78267048,6.49959375 4.0538205,6.45174373 4.34092053,6.35604373 C4.62810031,6.26034372 4.88322058,6.0848937 5.0985456,5.84564368 C5.22622536,5.69411866 5.32184562,5.52664365 5.36969564,5.33524363 C5.41754563,5.1438436 5.44944564,4.91264833 5.44944564,4.64141856 L5.44944564,4.30646853 C5.21817062,4.25064352 4.97094559,4.20279351 4.71574557,4.17089352 C4.46054554,4.13899351 4.21332051,4.1230435 3.96609549,4.1230435 C3.43185019,4.1230435 3.0409954,4.22671852 2.77782037,4.44204354 C2.5147251,4.65736855 2.38704534,4.96041859 2.38704534,5.35916863 C2.38704534,5.73399366 2.48274534,6.0131187 2.68212036,6.20451871 C2.87360013,6.40389373 3.15272515,6.49959375 3.51949545,6.49959375 Z M6.75734577,5.28739362 C6.75734577,5.58246865 6.78924577,5.82171867 6.84507078,5.99716869 C6.90887079,6.17261871 6.98862079,6.36401873 7.10035056,6.57136875 C7.14022555,6.63516876 7.15609581,6.69896877 7.15609581,6.75479378 C7.15609581,6.83454378 7.10824581,6.91429379 7.00457079,6.99404379 L6.5022255,7.32899382 C6.43037073,7.37684383 6.35859573,7.40084858 6.29479572,7.40084858 C6.21504572,7.40084858 6.13529571,7.36097358 6.05554571,7.28911883 C5.94397543,7.16949381 5.84819568,7.04189379 5.76844567,6.91429379 C5.68869567,6.77871878 5.60894565,6.62727351 5.52122064,6.44376875 C4.89917058,7.17746882 4.11762051,7.54439859 3.17657041,7.54439859 C2.50667035,7.54439859 1.97234529,7.35291884 1.58157025,6.97011879 C1.19079522,6.5873985 0.991420198,6.07691869 0.991420198,5.43891864 C0.991420198,4.76104357 1.23067022,4.21076851 1.71722502,3.79614822 C2.20362031,3.38136843 2.84959537,3.17401842 3.67110021,3.17401842 C3.94217049,3.17401842 4.22129551,3.19802316 4.51637055,3.23789817 C4.81144557,3.27777318 5.11449561,3.34149343 5.43349564,3.41326843 L5.43349564,2.83109338 C5.43349564,2.22499332 5.30597538,1.80239803 5.0586706,1.55509326 C4.80347058,1.30786823 4.37282053,1.18824322 3.75874546,1.18824322 C3.47962044,1.18824322 3.19260016,1.22014322 2.89744539,1.29191823 C2.60237035,1.36377298 2.31535008,1.45141824 2.03622505,1.563148 C1.90854529,1.61889325 1.81284528,1.65079326 1.75710003,1.66674327 C1.70119527,1.68277302 1.66132026,1.69066827 1.62942025,1.69066827 C1.51785,1.69066827 1.46194524,1.61091826 1.46194524,1.44352299 L1.46194524,1.0526682 C1.46194524,0.925147941 1.477975,0.829368181 1.51785,0.773543176 C1.55772501,0.717718171 1.62942025,0.661893165 1.74107026,0.60614791 C2.0201953,0.462518146 2.35522509,0.342893134 2.74592037,0.247272874 C3.1366954,0.143518114 3.55147519,0.0956681094 3.99010024,0.0956681094 C4.93904559,0.0956681094 5.63287065,0.310993131 6.0794707,0.741643173 C6.51809574,1.17229322 6.74147551,1.82624328 6.74147551,2.70349336 L6.74147551,5.28739362 L6.75734577,5.28739362 Z" id="Fill-1" fill-rule="nonzero"></path>
        <path d="M21.6786042,11.4521171 C19.054829,13.3900423 15.2427784,14.4188174 11.9650532,14.4188174 C7.37145273,14.4188174 3.23242732,12.7200625 0.10622701,9.89699193 C-0.140998014,9.67369191 0.0823020081,9.37056213 0.377377038,9.54609189 C3.75877737,11.5079421 7.92970278,12.6962172 12.2441782,12.6962172 C15.1550535,12.6962172 18.3530287,12.0901172 21.295804,10.8459373 C21.7344291,10.6465623 22.1092542,11.133117 21.6786042,11.4521171" id="Fill-4"></path>
        <path d="M22.7711952,10.2079691 C22.4362452,9.77739882 20.554145,10.0006191 19.7008198,10.1042941 C19.4456199,10.1362738 19.4057448,9.91297383 19.6370199,9.74541906 C21.13632,8.69271896 23.6005155,8.99584873 23.8876953,9.34666902 C24.1747953,9.70554406 23.8079452,12.1698991 22.4042653,13.3501194 C22.1890202,13.5335444 21.9816702,13.4378444 22.0773702,13.1985944 C22.3963701,12.4091491 23.1061452,10.6307239 22.7711952,10.2079691" id="Fill-7"></path>
      </g>
    </g>
    <g id="icon-slack">
      <path d="M24,4.5 L24,19.5 C24,20.7395896 23.5599002,21.7994748 22.6796875,22.6796875 C21.7994748,23.5599002 20.7395896,24 19.5,24 L4.5,24 C3.26041046,24 2.20052524,23.5599002 1.3203125,22.6796875 C0.440099766,21.7994748 0,20.7395896 0,19.5 L0,4.5 C0,3.26041044 0.440099766,2.2005252 1.3203125,1.32031248 C2.20052524,0.44009976 3.26041046,0 4.5,0 L19.5,0 C20.7395896,0 21.7994748,0.44009976 22.6796875,1.32031248 C23.5599002,2.2005252 24,3.26041044 24,4.5 Z M18.9340278,11.1944444 C18.7812492,11.1944444 18.6215286,11.2222219 18.4548611,11.2777777 L16.7465278,11.8611112 L15.6527778,8.56944444 L17.2881944,8.00694444 C17.5937515,7.90277724 17.8506934,7.7239596 18.0590278,7.47048612 C18.2673622,7.21701264 18.3715278,6.93402936 18.3715278,6.62152776 C18.3715278,6.21180348 18.2239598,5.86979304 17.9288195,5.59548612 C17.6336791,5.3211792 17.2777799,5.18402772 16.8611111,5.18402772 C16.7083326,5.18402772 16.5590285,5.20486092 16.4131944,5.2465278 L14.7256944,5.8194444 L14.1736111,4.14236112 C14.0694439,3.83680404 13.8836819,3.58854264 13.6163195,3.39756948 C13.348957,3.20659632 13.052085,3.11111112 12.7256945,3.11111112 C12.3159702,3.11111112 11.9635431,3.26041512 11.6684028,3.5590278 C11.3732624,3.85764036 11.2256944,4.21180356 11.2256944,4.62152772 C11.2256944,4.78125084 11.2534719,4.94444364 11.3090278,5.11111116 L11.8715278,6.77777772 L8.64236111,7.8715278 L8.07986111,6.20486112 C7.97569392,5.89235952 7.79166799,5.64236208 7.52777778,5.45486112 C7.26388757,5.26736016 6.96875164,5.17361112 6.64236112,5.17361112 C6.22569236,5.17361112 5.87152924,5.32117908 5.57986111,5.61631944 C5.28819299,5.9114598 5.14236112,6.26735904 5.14236112,6.68402772 C5.14236112,6.84375084 5.17013861,7.00694364 5.22569444,7.17361116 L5.77777777,8.82986112 L4.14236111,9.3819444 C3.83680403,9.4861116 3.58854262,9.6701376 3.39756944,9.9340278 C3.20659627,10.197918 3.11111111,10.4930539 3.11111111,10.8194444 C3.11111111,11.2361132 3.2534708,11.5850681 3.53819444,11.8663194 C3.8229181,12.1475708 4.17360902,12.2881944 4.59027778,12.2881944 C4.74305632,12.2881944 4.90972132,12.2604169 5.09027778,12.2048611 L6.71527777,11.6423611 L7.80902778,14.9027778 L6.18402778,15.4548611 C5.8784707,15.5590283 5.63020928,15.7430543 5.43923611,16.0069445 C5.24826294,16.2708347 5.15277778,16.5659706 5.15277778,16.8923611 C5.15277778,17.3159743 5.29340137,17.6666653 5.57465278,17.9444444 C5.85590418,18.2222236 6.20833122,18.3611111 6.63194444,18.3611111 C6.77777851,18.3611111 6.95138788,18.3298614 7.15277778,18.2673611 L8.74652778,17.7152778 L9.31944444,19.4131944 C9.42361163,19.725696 9.60763757,19.9756936 9.87152778,20.1631944 C10.135418,20.3506954 10.4305539,20.4444444 10.7569444,20.4444444 C11.1736132,20.4444444 11.5277763,20.2951404 11.8194444,19.9965277 C12.1111126,19.6979152 12.2569445,19.3437521 12.2569445,18.9340278 C12.2569445,18.7743048 12.229167,18.611112 12.1736111,18.4444445 L11.6006944,16.7361112 L14.8298611,15.6319445 L15.4027777,17.3506944 C15.5069449,17.663196 15.692707,17.9131936 15.9600695,18.1006944 C16.2274319,18.2881954 16.524304,18.3819444 16.8506945,18.3819444 C17.2604188,18.3819444 17.6111096,18.2326404 17.9027778,17.9340277 C18.194446,17.6354152 18.3402778,17.2812521 18.3402778,16.8715278 C18.3402778,16.6909714 18.3159725,16.5277786 18.2673611,16.3819445 L17.6840278,14.6423611 L19.4756945,14.0277778 C20.121531,13.7986099 20.4444444,13.3472256 20.4444444,12.6736111 C20.4444444,12.2499979 20.3003486,11.8975709 20.0121528,11.6163194 C19.7239568,11.335068 19.3645855,11.1944444 18.9340278,11.1944444 Z M10.6631944,13.9236112 L9.56944445,10.6631945 L12.7986112,9.54861108 L13.8923611,12.8298611 L10.6631944,13.9236112 Z"></path>
    </g>
    <g id="icon-youtube">
      <path d="M14.359375,18.359375 L14.359375,15.90625 C14.359375,15.3854141 14.2083348,15.125 13.90625,15.125 C13.7291658,15.125 13.5572926,15.2083325 13.390625,15.375 L13.390625,18.875 C13.5572926,19.0416674 13.7291658,19.125 13.90625,19.125 C14.2083348,19.125 14.359375,18.8697942 14.359375,18.359375 Z M17.234375,16.453125 L18.265625,16.453125 L18.265625,15.921875 C18.265625,15.3906223 18.0937517,15.125 17.75,15.125 C17.4062483,15.125 17.234375,15.3906223 17.234375,15.921875 L17.234375,16.453125 Z M8.3125,12.296875 L8.3125,13.390625 L7.0625,13.390625 L7.0625,20 L5.90625,20 L5.90625,13.390625 L4.6875,13.390625 L4.6875,12.296875 L8.3125,12.296875 Z M11.453125,14.265625 L11.453125,20 L10.40625,20 L10.40625,19.375 C9.99999797,19.8437524 9.6041686,20.078125 9.21875,20.078125 C8.87499828,20.078125 8.65625047,19.9322932 8.5625,19.640625 C8.49999968,19.4635408 8.46875,19.1822936 8.46875,18.796875 L8.46875,14.265625 L9.5,14.265625 L9.5,18.484375 C9.5,18.7343762 9.50520828,18.8697916 9.515625,18.890625 C9.52604172,19.0468758 9.60416593,19.125 9.75,19.125 C9.95833438,19.125 10.1770822,18.9635432 10.40625,18.640625 L10.40625,14.265625 L11.453125,14.265625 Z M15.390625,16 L15.390625,18.28125 C15.390625,18.8229193 15.354167,19.203124 15.28125,19.421875 C15.1562494,19.8593772 14.8802105,20.078125 14.453125,20.078125 C14.0885399,20.078125 13.7343767,19.8645854 13.390625,19.4375 L13.390625,20 L12.34375,20 L12.34375,12.296875 L13.390625,12.296875 L13.390625,14.8125 C13.72396,14.3958312 14.0781232,14.1875 14.453125,14.1875 C14.8802105,14.1875 15.1562494,14.4062478 15.28125,14.84375 C15.354167,15.062501 15.390625,15.4479139 15.390625,16 Z M19.3125,18.015625 L19.3125,18.15625 C19.3125,18.4583348 19.3020834,18.682291 19.28125,18.828125 C19.2499998,19.0572928 19.1718756,19.265624 19.046875,19.453125 C18.7656236,19.8697938 18.3489611,20.078125 17.796875,20.078125 C17.2552056,20.078125 16.8333348,19.8802103 16.53125,19.484375 C16.3124989,19.2031236 16.203125,18.7552114 16.203125,18.140625 L16.203125,16.125 C16.203125,15.5104136 16.3072907,15.0625014 16.515625,14.78125 C16.8177098,14.3854147 17.2343724,14.1875 17.765625,14.1875 C18.2968776,14.1875 18.7031236,14.3854147 18.984375,14.78125 C19.2031261,15.0833348 19.3125,15.5312471 19.3125,16.125 L19.3125,17.3125 L17.234375,17.3125 L17.234375,18.328125 C17.234375,18.8593776 17.4114565,19.125 17.765625,19.125 C18.0156263,19.125 18.1718747,18.9895847 18.234375,18.71875 C18.234375,18.7083332 18.2369791,18.6718753 18.2421875,18.609375 C18.2473958,18.5468747 18.25,18.460938 18.25,18.3515626 L18.25,18.015625 L19.3125,18.015625 Z M12.265625,5.14062504 L12.265625,7.57812504 C12.265625,8.10937764 12.09896,8.37500004 11.765625,8.37500004 C11.43229,8.37500004 11.265625,8.10937764 11.265625,7.57812504 L11.265625,5.14062504 C11.265625,4.5989556 11.43229,4.32812496 11.765625,4.32812496 C12.09896,4.32812496 12.265625,4.5989556 12.265625,5.14062504 Z M20.59375,16.28125 C20.59375,14.4374908 20.4947927,13.0833377 20.296875,12.21875 C20.1927078,11.7604144 19.9687517,11.3776057 19.625,11.0703125 C19.2812483,10.7630192 18.8854189,10.5833336 18.4375,10.53125 C17.0208263,10.3749992 14.8750144,10.296875 12,10.296875 C9.13540235,10.296875 6.99479875,10.3749992 5.578125,10.53125 C5.11978938,10.5833336 4.72135586,10.7630192 4.3828125,11.0703125 C4.04426914,11.3776057 3.82291718,11.7604144 3.71875,12.21875 C3.51041562,13.1250046 3.40625,14.4791576 3.40625,16.28125 C3.40625,18.1145926 3.51041562,19.4687456 3.71875,20.34375 C3.82291718,20.791669 4.04426914,21.1718735 4.3828125,21.484375 C4.72135586,21.7968766 5.11458109,21.9791664 5.5625,22.03125 C6.98959046,22.1875008 9.13540235,22.265625 12,22.265625 C14.8645976,22.265625 17.0104096,22.1875008 18.4375,22.03125 C18.8854189,21.9791664 19.2786442,21.7968766 19.6171874,21.484375 C19.9557308,21.1718735 20.1770828,20.791669 20.28125,20.34375 C20.4895843,19.4687456 20.59375,18.1145926 20.59375,16.28125 Z M8.796875,6.10937496 L10.203125,1.48437504 L9.03125,1.48437504 L8.234375,4.53125004 L7.40625,1.48437504 L6.1875,1.48437504 C6.26041703,1.72395948 6.3802075,2.08333092 6.546875,2.56250004 L6.921875,3.64062504 C7.28646016,4.71354708 7.52604109,5.53645548 7.640625,6.10937496 L7.640625,9.24999996 L8.796875,9.24999996 L8.796875,6.10937496 Z M13.3125,7.37499996 L13.3125,5.34375 C13.3125,4.73958036 13.2031261,4.28645988 12.984375,3.984375 C12.6822901,3.58853964 12.2760442,3.39062496 11.765625,3.39062496 C11.2343723,3.39062496 10.8281264,3.58853964 10.546875,3.984375 C10.3281239,4.28645988 10.21875,4.73958036 10.21875,5.34375 L10.21875,7.37499996 C10.21875,7.97916972 10.3281239,8.4322902 10.546875,8.73437496 C10.8281264,9.13021032 11.2343723,9.328125 11.765625,9.328125 C12.2760442,9.328125 12.6822901,9.13021032 12.984375,8.73437496 C13.2031261,8.45312364 13.3125,8.00000316 13.3125,7.37499996 Z M16.140625,9.24999996 L17.1875,9.24999996 L17.1875,3.46875 L16.140625,3.46875 L16.140625,7.89062496 C15.9114572,8.21354328 15.6927094,8.37500004 15.484375,8.37500004 C15.3281242,8.37500004 15.2447917,8.29166748 15.234375,8.12499996 C15.2239583,8.10416652 15.21875,7.9687512 15.21875,7.71875004 L15.21875,3.46875 L14.171875,3.46875 L14.171875,8.04687504 C14.171875,8.43229356 14.2031246,8.71874904 14.265625,8.90625 C14.3802089,9.18750144 14.604165,9.328125 14.9375,9.328125 C15.3125018,9.328125 15.7135396,9.0937524 16.140625,8.625 L16.140625,9.24999996 Z M24,4.5 L24,19.5 C24,20.7395896 23.5599002,21.7994748 22.6796875,22.6796875 C21.7994748,23.5599002 20.7395896,24 19.5,24 L4.5,24 C3.26041046,24 2.20052524,23.5599002 1.3203125,22.6796875 C0.440099766,21.7994748 0,20.7395896 0,19.5 L0,4.5 C0,3.26041044 0.440099766,2.2005252 1.3203125,1.32031248 C2.20052524,0.44009976 3.26041046,0 4.5,0 L19.5,0 C20.7395896,0 21.7994748,0.44009976 22.6796875,1.32031248 C23.5599002,2.2005252 24,3.26041044 24,4.5 Z"></path>
    </g>
    <g id="icon-compass">
      <path d="M11.9997,10.68 C11.2682817,10.68 10.679667,11.268 10.679667,12 C10.679667,12.732 11.2682817,13.32 11.9997,13.32 C12.7317183,13.32 13.319733,12.732 13.319733,12 C13.319733,11.268 12.7317183,10.68 11.9997,10.68 L11.9997,10.68 Z M11.9997,0 C5.37553439,0 0,5.376 0,12 C0,18.624 5.37553439,24 11.9997,24 C18.6238656,24 24,18.624 24,12 C24,5.376 18.6238656,0 11.9997,0 L11.9997,0 Z M14.6277657,14.628 L4.79951999,19.2 L9.37163429,9.372 L19.19988,4.8 L14.6277657,14.628 L14.6277657,14.628 Z"></path>
    </g>
    <g id="icon-reader">
      <path d="M0,7.00729927 L0,19.8540146 C4.25333333,19.8540146 8.11555556,21.4306569 11,24 C13.8844444,21.4423358 17.7466667,19.8540146 22,19.8540146 L22,7.00729927 C17.7466667,7.00729927 13.8844444,8.58394161 11,11.1532847 C8.11555556,8.58394161 4.25333333,7.00729927 0,7.00729927 Z M11,7.00729927 C13.0288889,7.00729927 14.6666667,5.44233577 14.6666667,3.50364964 C14.6666667,1.5649635 13.0288889,0 11,0 C8.97111111,0 7.33333333,1.5649635 7.33333333,3.50364964 C7.33333333,5.44233577 8.97111111,7.00729927 11,7.00729927 L11,7.00729927 Z"></path>
    </g>
    <g id="icon-globe">
      <path d="M11.988,0 C5.364,0 0,5.376 0,12 C0,18.624 5.364,24 11.988,24 C18.624,24 24,18.624 24,12 C24,5.376 18.624,0 11.988,0 L11.988,0 Z M20.304,7.2 L16.764,7.2 C16.38,5.7 15.828,4.26 15.108,2.928 C17.316,3.684 19.152,5.22 20.304,7.2 L20.304,7.2 Z M12,2.448 C12.996,3.888 13.776,5.484 14.292,7.2 L9.708,7.2 C10.224,5.484 11.004,3.888 12,2.448 L12,2.448 Z M2.712,14.4 C2.52,13.632 2.4,12.828 2.4,12 C2.4,11.172 2.52,10.368 2.712,9.6 L6.768,9.6 C6.672,10.392 6.6,11.184 6.6,12 C6.6,12.816 6.672,13.608 6.768,14.4 L2.712,14.4 L2.712,14.4 Z M3.696,16.8 L7.236,16.8 C7.62,18.3 8.172,19.74 8.892,21.072 C6.684,20.316 4.848,18.792 3.696,16.8 L3.696,16.8 Z M7.236,7.2 L3.696,7.2 C4.848,5.208 6.684,3.684 8.892,2.928 C8.172,4.26 7.62,5.7 7.236,7.2 L7.236,7.2 Z M12,21.552 C11.004,20.112 10.224,18.516 9.708,16.8 L14.292,16.8 C13.776,18.516 12.996,20.112 12,21.552 L12,21.552 Z M14.808,14.4 L9.192,14.4 C9.084,13.608 9,12.816 9,12 C9,11.184 9.084,10.38 9.192,9.6 L14.808,9.6 C14.916,10.38 15,11.184 15,12 C15,12.816 14.916,13.608 14.808,14.4 L14.808,14.4 Z M15.108,21.072 C15.828,19.74 16.38,18.3 16.764,16.8 L20.304,16.8 C19.152,18.78 17.316,20.316 15.108,21.072 L15.108,21.072 Z M17.232,14.4 C17.328,13.608 17.4,12.816 17.4,12 C17.4,11.184 17.328,10.392 17.232,9.6 L21.288,9.6 C21.48,10.368 21.6,11.172 21.6,12 C21.6,12.828 21.48,13.632 21.288,14.4 L17.232,14.4 L17.232,14.4 Z"></path>
    </g>
    <g id="icon-group">
      <path d="M17.3998948,8.25 C19.056083,8.25 20.3882474,6.92981106 20.3882474,5.30378229 C20.3882474,3.6771631 19.056083,2.35697416 17.3998948,2.35697416 C15.7443078,2.35697416 14.4001202,3.6771631 14.4001202,5.30378229 C14.4001202,6.92981106 15.7443078,8.25 17.3998948,8.25 L17.3998948,8.25 Z M8.39996994,7.07151292 C10.392205,7.07151292 11.9882774,5.49212767 11.9882774,3.53605167 C11.9882774,1.57938524 10.392205,0 8.39996994,0 C6.40773489,0 4.80024046,1.57938524 4.80024046,3.53605167 C4.80024046,5.49212767 6.40773489,7.07151292 8.39996994,7.07151292 L8.39996994,7.07151292 Z M17.3998948,10.6075646 C15.2038674,10.6075646 10.7997896,11.6915838 10.7997896,13.8484041 L10.7997896,16.5 L24,16.5 L24,13.8484041 C24,11.6915838 19.5959222,10.6075646 17.3998948,10.6075646 L17.3998948,10.6075646 Z M8.39996994,9.42848708 C5.60398768,9.42848708 0,10.8077185 0,13.5537823 L0,16.5 L8.39996994,16.5 L8.39996994,13.8484041 C8.39996994,12.8464539 8.79613256,11.0905317 11.2440448,9.75853432 C10.1998347,9.54657196 9.19169401,9.42848708 8.39996994,9.42848708 L8.39996994,9.42848708 Z"></path>
    </g>

    <!--
      Material icons (https://material.io/icons/)
      SVG sourced from the 24px production versions of https://github.com/google/material-design-icons
    -->

    <g id="icon-loading">
      <!-- https://material.io/icons/#ic_autorenew -->
      <path d="M12 6v3l4-4-4-4v3c-4.42 0-8 3.58-8 8 0 1.57.46 3.03 1.24 4.26L6.7 14.8c-.45-.83-.7-1.79-.7-2.8 0-3.31 2.69-6 6-6zm6.76 1.74L17.3 9.2c.44.84.7 1.79.7 2.8 0 3.31-2.69 6-6 6v-3l-4 4 4 4v-3c4.42 0 8-3.58 8-8 0-1.57-.46-3.03-1.24-4.26z"/>
    </g>
    <g id="icon-chevron-left">
      <!-- https://material.io/icons/#ic_keyboard_arrow_left -->
      <path d="M15.41 7.41L14 6l-6 6 6 6 1.41-1.41L10.83 12z"/>
    </g>
    <g id="icon-chevron-right">
      <!-- https://material.io/icons/#ic_keyboard_arrow_right -->
      <path d="M10 6L8.59 7.41 13.17 12l-4.58 4.59L10 18l6-6z"/>
    </g>
    <g id="icon-chevron-up">
      <!-- https://material.io/icons/#ic_keyboard_arrow_up -->
      <path d="M7.41 15.41L12 10.83l4.59 4.58L18 14l-6-6-6 6z"/>
    </g>
    <g id="icon-chevron-down">
      <!-- https://material.io/icons/#ic_keyboard_arrow_down -->
      <path d="M7.41 7.84L12 12.42l4.59-4.58L18 9.25l-6 6-6-6z"/>
    </g>
    <g id="icon-check">
      <!-- https://material.io/icons/#ic_check -->
      <path d="M9 16.17L4.83 12l-1.42 1.41L9 19 21 7l-1.41-1.41z"/>
    </g>
    <g id="icon-alert">
      <!-- https://material.io/icons/#ic_error_outline -->
      <path d="M11 15h2v2h-2zm0-8h2v6h-2zm.99-5C6.47 2 2 6.48 2 12s4.47 10 9.99 10C17.52 22 22 17.52 22 12S17.52 2 11.99 2zM12 20c-4.42 0-8-3.58-8-8s3.58-8 8-8 8 3.58 8 8-3.58 8-8 8z"/>
    </g>
    <g id="icon-pending">
      <!-- https://material.io/icons/#ic_access_time -->
      <path d="M11.99 2C6.47 2 2 6.48 2 12s4.47 10 9.99 10C17.52 22 22 17.52 22 12S17.52 2 11.99 2zM12 20c-4.42 0-8-3.58-8-8s3.58-8 8-8 8 3.58 8 8-3.58 8-8 8zm.5-13H11v6l5.25 3.15.75-1.23-4.5-2.67z"/>
    </g>
    <g id="icon-add">
      <!-- https://material.io/icons/#ic_add -->
      <path d="M19 13h-6v6h-2v-6H5v-2h6V5h2v6h6v2z"/>
    </g>
    <g id="icon-add-circle">
      <!-- https://material.io/icons/#ic_add_circle -->
      <path d="M12 2C6.48 2 2 6.48 2 12s4.48 10 10 10 10-4.48 10-10S17.52 2 12 2zm5 11h-4v4h-2v-4H7v-2h4V7h2v4h4v2z"/>
    </g>
    <g id="icon-add-box">
      <!-- https://material.io/icons/#ic_add_box -->
      <path d="M19 3H5c-1.11 0-2 .9-2 2v14c0 1.1.89 2 2 2h14c1.1 0 2-.9 2-2V5c0-1.1-.9-2-2-2zm-2 10h-4v4h-2v-4H7v-2h4V7h2v4h4v2z"/>
    </g>
    <g id="icon-settings">
      <!-- https://material.io/icons/#ic_settings -->
      <path d="M19.43 12.98c.04-.32.07-.64.07-.98s-.03-.66-.07-.98l2.11-1.65c.19-.15.24-.42.12-.64l-2-3.46c-.12-.22-.39-.3-.61-.22l-2.49 1c-.52-.4-1.08-.73-1.69-.98l-.38-2.65C14.46 2.18 14.25 2 14 2h-4c-.25 0-.46.18-.49.42l-.38 2.65c-.61.25-1.17.59-1.69.98l-2.49-1c-.23-.09-.49 0-.61.22l-2 3.46c-.13.22-.07.49.12.64l2.11 1.65c-.04.32-.07.65-.07.98s.03.66.07.98l-2.11 1.65c-.19.15-.24.42-.12.64l2 3.46c.12.22.39.3.61.22l2.49-1c.52.4 1.08.73 1.69.98l.38 2.65c.03.24.24.42.49.42h4c.25 0 .46-.18.49-.42l.38-2.65c.61-.25 1.17-.59 1.69-.98l2.49 1c.23.09.49 0 .61-.22l2-3.46c.12-.22.07-.49-.12-.64l-2.11-1.65zM12 15.5c-1.93 0-3.5-1.57-3.5-3.5s1.57-3.5 3.5-3.5 3.5 1.57 3.5 3.5-1.57 3.5-3.5 3.5z"/>
    </g>
    <g id="icon-drop-up">
      <!-- https://material.io/icons/#ic_arrow_drop_up -->
      <path d="M7 14l5-5 5 5z"/>
    </g>
    <g id="icon-drop-down">
      <!-- https://material.io/icons/#ic_arrow_drop_down -->
      <path d="M7 10l5 5 5-5z"/>
    </g>
    <g id="icon-people">
      <!-- https://material.io/icons/#ic_people -->
      <path d="M16 11c1.66 0 2.99-1.34 2.99-3S17.66 5 16 5c-1.66 0-3 1.34-3 3s1.34 3 3 3zm-8 0c1.66 0 2.99-1.34 2.99-3S9.66 5 8 5C6.34 5 5 6.34 5 8s1.34 3 3 3zm0 2c-2.33 0-7 1.17-7 3.5V19h14v-2.5c0-2.33-4.67-3.5-7-3.5zm8 0c-.29 0-.62.02-.97.05 1.16.84 1.97 1.97 1.97 3.45V19h6v-2.5c0-2.33-4.67-3.5-7-3.5z"/>
    </g>
    <g id="icon-list-bulleted">
      <!-- https://material.io/icons/#ic_format_list_bulleted -->
      <path d="M4 10.5c-.83 0-1.5.67-1.5 1.5s.67 1.5 1.5 1.5 1.5-.67 1.5-1.5-.67-1.5-1.5-1.5zm0-6c-.83 0-1.5.67-1.5 1.5S3.17 7.5 4 7.5 5.5 6.83 5.5 6 4.83 4.5 4 4.5zm0 12c-.83 0-1.5.68-1.5 1.5s.68 1.5 1.5 1.5 1.5-.68 1.5-1.5-.67-1.5-1.5-1.5zM7 19h14v-2H7v2zm0-6h14v-2H7v2zm0-8v2h14V5H7z"/>
    </g>
    <g id="icon-layers">
      <!-- https://material.io/icons/#ic_layers -->
      <path d="M11.99 18.54l-7.37-5.73L3 14.07l9 7 9-7-1.63-1.27-7.38 5.74zM12 16l7.36-5.73L21 9l-9-7-9 7 1.63 1.27L12 16z"/>
    </g>
    <g id="icon-no">
      <!-- https://material.io/icons/#ic_not_interested -->
      <path d="M12 2C6.48 2 2 6.48 2 12s4.48 10 10 10 10-4.48 10-10S17.52 2 12 2zm0 18c-4.42 0-8-3.58-8-8 0-1.85.63-3.55 1.69-4.9L16.9 18.31C15.55 19.37 13.85 20 12 20zm6.31-3.1L7.1 5.69C8.45 4.63 10.15 4 12 4c4.42 0 8 3.58 8 8 0 1.85-.63 3.55-1.69 4.9z"/>
    </g>
    <g id="icon-link">
      <!-- https://material.io/icons/#ic_link -->
      <path d="M3.9 12c0-1.71 1.39-3.1 3.1-3.1h4V7H7c-2.76 0-5 2.24-5 5s2.24 5 5 5h4v-1.9H7c-1.71 0-3.1-1.39-3.1-3.1zM8 13h8v-2H8v2zm9-6h-4v1.9h4c1.71 0 3.1 1.39 3.1 3.1s-1.39 3.1-3.1 3.1h-4V17h4c2.76 0 5-2.24 5-5s-2.24-5-5-5z"/>
    </g>
    <g id="icon-copy">
      <!-- https://material.io/icons/#ic_content_copy -->
      <path d="M16 1H4c-1.1 0-2 .9-2 2v14h2V3h12V1zm3 4H8c-1.1 0-2 .9-2 2v14c0 1.1.9 2 2 2h11c1.1 0 2-.9 2-2V7c0-1.1-.9-2-2-2zm0 16H8V7h11v14z"/>
    </g>
    <g id="icon-public">
      <!-- https://material.io/icons/#ic_public -->
      <path d="M12 2C6.48 2 2 6.48 2 12s4.48 10 10 10 10-4.48 10-10S17.52 2 12 2zm-1 17.93c-3.95-.49-7-3.85-7-7.93 0-.62.08-1.21.21-1.79L9 15v1c0 1.1.9 2 2 2v1.93zm6.9-2.54c-.26-.81-1-1.39-1.9-1.39h-1v-3c0-.55-.45-1-1-1H8v-2h2c.55 0 1-.45 1-1V7h2c1.1 0 2-.9 2-2v-.41c2.93 1.19 5 4.06 5 7.41 0 2.08-.8 3.97-2.1 5.39z"/>
    </g>
    <g id="icon-warning">
      <!-- https://material.io/icons/#ic_warning -->
      <path d="M1 21h22L12 2 1 21zm12-3h-2v-2h2v2zm0-4h-2v-4h2v4z"/>
    </g>
    <g id="icon-lock">
      <!-- https://material.io/icons/#ic_lock -->
      <path d="M18 8h-1V6c0-2.76-2.24-5-5-5S7 3.24 7 6v2H6c-1.1 0-2 .9-2 2v10c0 1.1.9 2 2 2h12c1.1 0 2-.9 2-2V10c0-1.1-.9-2-2-2zm-6 9c-1.1 0-2-.9-2-2s.9-2 2-2 2 .9 2 2-.9 2-2 2zm3.1-9H8.9V6c0-1.71 1.39-3.1 3.1-3.1 1.71 0 3.1 1.39 3.1 3.1v2z"/>
    </g>
    <g id="icon-docker">
      <path d="M13.5742702,10.8108026 L16.0522901,10.8108026 L16.0522901,8.51347814 L13.5742702,8.51347814 L13.5742702,10.8108026 Z M10.6455846,10.8108026 L13.1237032,10.8108026 L13.1237032,8.51347814 L10.6455846,8.51347814 L10.6455846,10.8108026 Z M7.71699771,10.8108026 L10.1950176,10.8108026 L10.1950176,8.51347814 L7.71699771,8.51347814 L7.71699771,10.8108026 Z M4.78831211,10.8108026 L7.2664307,10.8108026 L7.2664307,8.51347814 L4.78831211,8.51347814 L4.78831211,10.8108026 Z M1.85962651,10.8108026 L4.33774509,10.8108026 L4.33774509,8.51347814 L1.85962651,8.51347814 L1.85962651,10.8108026 Z M4.78831211,8.05401324 L7.2664307,8.05401324 L7.2664307,5.75678941 L4.78831211,5.75678941 L4.78831211,8.05401324 Z M7.71699771,8.05401324 L10.1950176,8.05401324 L10.1950176,5.75678941 L7.71699771,5.75678941 L7.71699771,8.05401324 Z M10.6455846,8.05401324 L13.1237032,8.05401324 L13.1237032,5.75678941 L10.6455846,5.75678941 L10.6455846,8.05401324 Z M10.6455846,5.29732451 L13.1237032,5.29732451 L13.1237032,3 L10.6455846,3 L10.6455846,5.29732451 Z M24,9.8117383 L23.4996771,9.47126716 C22.9582859,9.10210463 21.7150803,8.96680208 20.7579709,9.15082965 C20.6347659,8.23169851 20.1323699,7.43468194 19.2186981,6.71427641 L18.6932999,6.35709379 L18.3428369,6.8932704 C17.8940469,7.5833738 17.6698493,8.5394514 17.7432985,9.45636777 C17.7763703,9.77881871 17.8803246,10.3557673 18.2058108,10.8629505 C17.880522,11.0412398 17.2375459,11.2867777 16.3902153,11.2702675 L0.092503462,11.2702675 L0.0606162696,11.4616441 C-0.092600209,12.3830907 -0.0892436624,15.2583705 1.7413576,17.4684128 C3.13294232,19.1482181 5.21923346,20 7.9421825,20 C13.845262,20 18.2125239,17.2290159 20.257648,12.1921168 C21.0618371,12.2085263 22.793519,12.1969491 23.6830038,10.4638885 C23.7061047,10.4241233 23.7595133,10.3201296 23.9149017,9.99183968 L24,9.8117383 L24,9.8117383 Z"></path>
    </g>
    <g id="icon-visibility">
      <!-- https://material.io/icons/#ic_visibility -->
      <path d="M12 4.5C7 4.5 2.73 7.61 1 12c1.73 4.39 6 7.5 11 7.5s9.27-3.11 11-7.5c-1.73-4.39-6-7.5-11-7.5zM12 17c-2.76 0-5-2.24-5-5s2.24-5 5-5 5 2.24 5 5-2.24 5-5 5zm0-8c-1.66 0-3 1.34-3 3s1.34 3 3 3 3-1.34 3-3-1.34-3-3-3z"/>
    </g>
    <g id="icon-visibility-off">
      <!-- https://material.io/icons/#ic_visibility_off -->
      <path d="M12 7c2.76 0 5 2.24 5 5 0 .65-.13 1.26-.36 1.83l2.92 2.92c1.51-1.26 2.7-2.89 3.43-4.75-1.73-4.39-6-7.5-11-7.5-1.4 0-2.74.25-3.98.7l2.16 2.16C10.74 7.13 11.35 7 12 7zM2 4.27l2.28 2.28.46.46C3.08 8.3 1.78 10.02 1 12c1.73 4.39 6 7.5 11 7.5 1.55 0 3.03-.3 4.38-.84l.42.42L19.73 22 21 20.73 3.27 3 2 4.27zM7.53 9.8l1.55 1.55c-.05.21-.08.43-.08.65 0 1.66 1.34 3 3 3 .22 0 .44-.03.65-.08l1.55 1.55c-.67.33-1.41.53-2.2.53-2.76 0-5-2.24-5-5 0-.79.2-1.53.53-2.2zm4.31-.78l3.15 3.15.02-.16c0-1.66-1.34-3-3-3l-.17.01z"/>
    </g>
    <g id="icon-file-upload">
      <!-- https://material.io/icons/#ic_file_upload -->
      <path d="M9 16h6v-6h4l-7-7-7 7h4zm-4 2h14v2H5z"/>
    </g>
    <g id="icon-file-download">
      <!-- https://material.io/icons/#ic_file_download -->
      <path d="M19 9h-4V3H9v6H5l7 7 7-7zM5 18v2h14v-2H5z"/>
    </g>
    <g id="icon-cancel">
      <!-- https://material.io/icons/#ic_cancel -->
      <path d="M12 2C6.47 2 2 6.47 2 12s4.47 10 10 10 10-4.47 10-10S17.53 2 12 2zm5 13.59L15.59 17 12 13.41 8.41 17 7 15.59 10.59 12 7 8.41 8.41 7 12 10.59 15.59 7 17 8.41 13.41 12 17 15.59z"/>
    </g>
    <g id="icon-delete">
      <!-- https://material.io/icons/#ic_delete -->
      <path d="M6 19c0 1.1.9 2 2 2h8c1.1 0 2-.9 2-2V7H6v12zM19 4h-3.5l-1-1h-5l-1 1H5v2h14V4z"/>
    </g>
    <g id="icon-open-in-new">
      <!-- https://material.io/icons/#ic_open_in_new -->
      <path d="M19 19H5V5h7V3H5c-1.11 0-2 .9-2 2v14c0 1.1.89 2 2 2h14c1.1 0 2-.9 2-2v-7h-2v7zM14 3v2h3.59l-9.83 9.83 1.41 1.41L19 6.41V10h2V3h-7z"/>
    </g>
    <g id="icon-info-outline">
      <!-- https://material.io/icons/#ic_info_outline -->
      <path d="M11 17h2v-6h-2v6zm1-15C6.48 2 2 6.48 2 12s4.48 10 10 10 10-4.48 10-10S17.52 2 12 2zm0 18c-4.41 0-8-3.59-8-8s3.59-8 8-8 8 3.59 8 8-3.59 8-8 8zM11 9h2V7h-2v2z"/>
    </g>
    <g id="icon-menu">
      <!-- https://material.io/icons/#ic_menu -->
      <path d="M3 18h18v-2H3v2zm0-5h18v-2H3v2zm0-7v2h18V6H3z"/>
    </g>
    <g id="icon-star-circle">
      <!-- https://material.io/icons/#ic_stars -->
      <path d="M11.99 2C6.47 2 2 6.48 2 12s4.47 10 9.99 10C17.52 22 22 17.52 22 12S17.52 2 11.99 2zm4.24 16L12 15.45 7.77 18l1.12-4.81-3.73-3.23 4.92-.42L12 5l1.92 4.53 4.92.42-3.73 3.23L16.23 18z"/>
    </g>
    <g id="icon-description">
      <!-- https://material.io/icons/#ic_description -->
      <path d="M14 2H6c-1.1 0-1.99.9-1.99 2L4 20c0 1.1.89 2 1.99 2H18c1.1 0 2-.9 2-2V8l-6-6zm2 16H8v-2h8v2zm0-4H8v-2h8v2zm-3-5V3.5L18.5 9H13z"/>
    </g>
    <g id="icon-search">
      <!-- https://material.io/icons/#ic_search -->
      <path d="M15.5 14h-.79l-.28-.27C15.41 12.59 16 11.11 16 9.5 16 5.91 13.09 3 9.5 3S3 5.91 3 9.5 5.91 16 9.5 16c1.61 0 3.09-.59 4.23-1.57l.27.28v.79l5 4.99L20.49 19l-4.99-5zm-6 0C7.01 14 5 11.99 5 9.5S7.01 5 9.5 5 14 7.01 14 9.5 11.99 14 9.5 14z"/>
    </g>
    <g id="icon-call-split">
      <!-- https://material.io/icons/#call_split -->
      <path d="M14 4l2.29 2.29-2.88 2.88 1.42 1.42 2.88-2.88L20 10V4zm-4 0H4v6l2.29-2.29 4.71 4.7V20h2v-8.41l-5.29-5.3z"/>
    </g>
    <g id="icon-web-asset">
      <!-- https://material.io/icons/#web_asset -->
      <path d="M19 4H5c-1.11 0-2 .9-2 2v12c0 1.1.89 2 2 2h14c1.1 0 2-.9 2-2V6c0-1.1-.89-2-2-2zm0 14H5V8h14v10z"/>
    </g>
  </defs>
</svg>
